<svg version="1.1" xmlns="http://www.w3.org/2000/svg" viewBox="0 0 1111.2692100919542 525.32303154927" width="1111.2692100919542" height="525.32303154927">
  <!-- svg-source:excalidraw -->
  
  <defs>
    <style class="style-fonts">
      @font-face {
        font-family: "Virgil";
        src: url("https://excalidraw.com/Virgil.woff2");
      }
      @font-face {
        font-family: "Cascadia";
        src: url("https://excalidraw.com/Cascadia.woff2");
      }
    </style>
  </defs>
  <rect x="0" y="0" width="1111.2692100919542" height="525.32303154927" fill="#ffffff"></rect><g stroke-linecap="round" transform="translate(10 12.539311716327887) rotate(0 97.12867314954565 39.35933160308386)"><path d="M5.24 4.55 C5.24 4.55, 5.24 4.55, 5.24 4.55 M5.24 4.55 C5.24 4.55, 5.24 4.55, 5.24 4.55 M1.04 15.48 C5.37 11.07, 5.71 7.56, 12.19 2.65 M1.04 15.48 C5.42 10.87, 7.71 7.62, 12.19 2.65 M0.78 21.88 C7.97 13.5, 16.99 6.52, 19.8 -0.01 M0.78 21.88 C5.88 17.23, 10.44 12.25, 19.8 -0.01 M1.17 27.52 C9.79 16.98, 17.49 10.63, 24.79 0.35 M1.17 27.52 C10.87 17.3, 19.05 5.7, 24.79 0.35 M0.91 33.92 C9.59 20.95, 23.2 8.37, 30.43 -0.04 M0.91 33.92 C10.42 23.75, 18.87 12.84, 30.43 -0.04 M0.65 40.32 C10.93 25.48, 25.27 12, 35.42 0.32 M0.65 40.32 C13.97 25.39, 27.05 10.31, 35.42 0.32 M1.05 45.96 C10.29 34.21, 21.53 21.8, 41.06 -0.08 M1.05 45.96 C13.55 31.43, 27.29 16.03, 41.06 -0.08 M0.78 52.36 C16.57 32.47, 35.13 12.37, 46.05 0.28 M0.78 52.36 C13.86 35.85, 27.95 19.31, 46.05 0.28 M1.18 58 C11.8 45.04, 22.84 28.52, 51.7 -0.11 M1.18 58 C13.63 43.87, 25.41 30.69, 51.7 -0.11 M0.92 64.4 C22.73 41.07, 41.78 16.14, 56.68 0.25 M0.92 64.4 C21.1 42.98, 40.67 19.66, 56.68 0.25 M2.62 68.53 C18.41 53.58, 31.11 36.78, 62.33 -0.15 M2.62 68.53 C14.87 56.01, 27.06 41.28, 62.33 -0.15 M4.33 72.67 C25.32 49.42, 43.66 27.42, 67.31 0.21 M4.33 72.67 C21.04 52.19, 38.19 33.01, 67.31 0.21 M7.35 75.29 C34.7 46, 57.8 16.4, 72.96 -0.18 M7.35 75.29 C25.51 55.27, 43.95 33.33, 72.96 -0.18 M11.02 77.16 C25.52 59.81, 42.98 38.79, 77.94 0.18 M11.02 77.16 C23.48 60.83, 38.12 46.16, 77.94 0.18 M14.04 79.78 C34.2 60.07, 50.2 39.36, 83.59 -0.22 M14.04 79.78 C33.17 58.79, 50.52 38.97, 83.59 -0.22 M20.34 78.63 C32.33 63.26, 46.35 46.79, 88.57 0.14 M20.34 78.63 C38.25 58.1, 56.98 36.2, 88.57 0.14 M25.33 78.99 C48.57 52.66, 74.06 23.21, 94.22 -0.25 M25.33 78.99 C42.09 60.6, 58.52 40.15, 94.22 -0.25 M30.32 79.35 C55.06 49.97, 78.72 24.03, 99.2 0.11 M30.32 79.35 C54.46 51.89, 78.49 23.79, 99.2 0.11 M35.96 78.96 C54.25 57.5, 69.36 38.13, 104.85 -0.29 M35.96 78.96 C56.44 55.53, 77.23 33.78, 104.85 -0.29 M40.95 79.32 C57.48 59.33, 72.25 41.93, 109.83 0.08 M40.95 79.32 C62.76 53.09, 85.15 27.24, 109.83 0.08 M46.59 78.92 C62.32 57.79, 79.13 39.95, 114.82 0.44 M46.59 78.92 C70.72 51.83, 94.51 23.58, 114.82 0.44 M51.58 79.29 C70.96 53.91, 91.65 32.79, 120.46 0.04 M51.58 79.29 C67.24 62.68, 82.41 46.07, 120.46 0.04 M57.22 78.89 C78.52 54.78, 100.49 30.69, 125.45 0.4 M57.22 78.89 C81.4 51.27, 105.9 25.12, 125.45 0.4 M62.21 79.25 C89.43 50.37, 117.63 15.84, 131.09 0.01 M62.21 79.25 C80.22 58.58, 99.92 36.49, 131.09 0.01 M67.85 78.86 C89.6 53.99, 114.58 26.18, 136.08 0.37 M67.85 78.86 C86.08 57.24, 103.19 37.79, 136.08 0.37 M72.84 79.22 C92.59 57.6, 108.65 35.62, 141.72 -0.03 M72.84 79.22 C88.9 59.97, 106.05 38.97, 141.72 -0.03 M78.48 78.82 C99 55.26, 117.74 33.55, 146.71 0.33 M78.48 78.82 C97.47 56.96, 116.05 34.24, 146.71 0.33 M83.47 79.18 C100.06 60.23, 119.33 41.93, 152.35 -0.06 M83.47 79.18 C108.33 49.65, 132.93 21.31, 152.35 -0.06 M89.11 78.79 C109.32 55.73, 126.59 34.61, 157.34 0.3 M89.11 78.79 C106.64 59.98, 120.89 42.32, 157.34 0.3 M94.1 79.15 C120.21 49.58, 147.27 16.2, 162.98 -0.1 M94.1 79.15 C117.65 53.05, 140.67 26.96, 162.98 -0.1 M99.74 78.75 C115.67 58.74, 134.9 38.27, 167.97 0.26 M99.74 78.75 C124.19 49.47, 149.9 21.47, 167.97 0.26 M104.73 79.11 C128.47 50.58, 152.46 22.26, 173.61 -0.13 M104.73 79.11 C124.74 55.84, 145.98 31.32, 173.61 -0.13 M110.37 78.72 C132.57 50.86, 156.56 26.48, 177.29 1.74 M110.37 78.72 C134.11 51.28, 158.93 22.9, 177.29 1.74 M115.36 79.08 C129.91 60.31, 145.25 42.34, 181.62 2.85 M115.36 79.08 C138.5 50.38, 163.12 22.85, 181.62 2.85 M121 78.68 C136.05 59.38, 150.93 41.45, 185.95 3.97 M121 78.68 C141.59 56.49, 160.1 32.02, 185.95 3.97 M125.99 79.04 C150.63 48.99, 174.33 20.29, 190.28 5.08 M125.99 79.04 C138.26 63.44, 152.39 48.27, 190.28 5.08 M131.63 78.65 C149.25 59.51, 167.24 41.16, 191.99 9.22 M131.63 78.65 C153.16 52.44, 176.98 27.87, 191.99 9.22 M136.62 79.01 C151.09 62.02, 164.11 43.14, 193.69 13.35 M136.62 79.01 C152.61 61.15, 166.8 43.4, 193.69 13.35 M141.6 79.37 C151.69 65.36, 163.49 55.3, 196.06 16.73 M141.6 79.37 C155.8 63.31, 170.91 46.76, 196.06 16.73 M147.25 78.97 C160.15 64.03, 173.55 48.81, 195.8 23.13 M147.25 78.97 C156.56 68.12, 167.64 55.74, 195.8 23.13 M152.23 79.33 C165.46 63.65, 177.94 47.88, 196.19 28.77 M152.23 79.33 C170.07 58.73, 188.44 39.27, 196.19 28.77 M157.88 78.94 C170.41 62.02, 184.99 47.3, 195.93 35.17 M157.88 78.94 C172.89 61.7, 188.69 43.07, 195.93 35.17 M162.86 79.3 C173.44 66.03, 184.39 53.31, 196.32 40.81 M162.86 79.3 C174.7 66.05, 187.57 50.59, 196.32 40.81 M168.51 78.91 C175.41 71.79, 182.02 61.53, 196.06 47.21 M168.51 78.91 C175.68 71.08, 183.6 62.71, 196.06 47.21 M173.49 79.27 C182.06 67.8, 192.68 58.53, 196.46 52.85 M173.49 79.27 C177.78 73.2, 182.84 67.3, 196.46 52.85 M177.17 81.14 C180.86 77.31, 182.98 73.06, 195.54 60 M177.17 81.14 C182.89 72.97, 190.28 66.53, 195.54 60" stroke="#ffffff" stroke-width="0.5" fill="none"></path><path d="M19.68 0 M19.68 0 C75.56 2.59, 136.65 1.83, 174.58 0 M19.68 0 C51.66 1.47, 84.8 0.22, 174.58 0 M174.58 0 C189.69 -1.51, 193.31 6.27, 194.26 19.68 M174.58 0 C186.04 -1.04, 193.98 8.3, 194.26 19.68 M194.26 19.68 C194.03 30.16, 194.94 39.46, 194.26 59.04 M194.26 19.68 C194.88 29.01, 194.3 38.03, 194.26 59.04 M194.26 59.04 C193.71 72.26, 187.68 79.58, 174.58 78.72 M194.26 59.04 C195.18 74.01, 189.69 78.17, 174.58 78.72 M174.58 78.72 C122.96 77.56, 67.32 79.37, 19.68 78.72 M174.58 78.72 C119.48 77.51, 63.22 77.61, 19.68 78.72 M19.68 78.72 C4.73 77.06, 0.93 73.14, 0 59.04 M19.68 78.72 C6.85 80.97, -2.15 70.08, 0 59.04 M0 59.04 C2.18 43.96, 0.07 31.08, 0 19.68 M0 59.04 C0.66 44.39, 0.03 29.28, 0 19.68 M0 19.68 C1.01 5.23, 6.2 -1.71, 19.68 0 M0 19.68 C0.86 5.34, 6.64 -1.51, 19.68 0" stroke="#1e1e1e" stroke-width="1" fill="none"></path></g><g transform="translate(80.62867314954565 39.39864331941175) rotate(0 26.5 12.5)"><text x="26.5" y="0" font-family="Virgil, Segoe UI Emoji" font-size="20px" fill="#1e1e1e" text-anchor="middle" style="white-space: pre;" direction="ltr" dominant-baseline="text-before-edge">iMooX</text></g><g stroke-linecap="round" transform="translate(494.3737098895647 241.07736618584715) rotate(0 97.12867314954565 39.35933160308386)"><path d="M5.24 4.55 C5.24 4.55, 5.24 4.55, 5.24 4.55 M5.24 4.55 C5.24 4.55, 5.24 4.55, 5.24 4.55 M1.04 15.48 C3.1 11.44, 6.73 6.71, 12.19 2.65 M1.04 15.48 C3.18 12.83, 5.43 8.62, 12.19 2.65 M0.78 21.88 C6.68 16.18, 11.32 11.59, 19.8 -0.01 M0.78 21.88 C8.37 14.11, 14.48 5.57, 19.8 -0.01 M1.17 27.52 C10.8 19.75, 19.58 8.03, 24.79 0.35 M1.17 27.52 C7.59 21.78, 12.44 15.11, 24.79 0.35 M0.91 33.92 C6.45 29.2, 12.65 20.66, 30.43 -0.04 M0.91 33.92 C10.76 23.02, 19.29 12.76, 30.43 -0.04 M0.65 40.32 C9.17 27.79, 18.65 17.98, 35.42 0.32 M0.65 40.32 C15.11 24.79, 27.44 9.09, 35.42 0.32 M1.05 45.96 C11.49 34.75, 23.43 19.55, 41.06 -0.08 M1.05 45.96 C9.89 35.42, 20.24 23.05, 41.06 -0.08 M0.78 52.36 C8.82 40.96, 20.21 32.18, 46.05 0.28 M0.78 52.36 C13.66 39.36, 24.41 25.85, 46.05 0.28 M1.18 58 C16.1 43.06, 28.03 29.6, 51.7 -0.11 M1.18 58 C10.45 46.28, 20.82 34.17, 51.7 -0.11 M0.92 64.4 C15.27 48.27, 30.73 29.77, 56.68 0.25 M0.92 64.4 C20.14 42.49, 40.58 18.91, 56.68 0.25 M2.62 68.53 C16.92 53.2, 30.86 34.04, 62.33 -0.15 M2.62 68.53 C23.78 43.55, 44.45 20.41, 62.33 -0.15 M4.33 72.67 C26.04 47.43, 47.97 21.29, 67.31 0.21 M4.33 72.67 C20.49 53.38, 35.27 35.39, 67.31 0.21 M7.35 75.29 C26.72 52.33, 47.03 33.31, 72.96 -0.18 M7.35 75.29 C23.05 56.85, 37.64 39.87, 72.96 -0.18 M11.02 77.16 C32.1 50.89, 53.9 25.62, 77.94 0.18 M11.02 77.16 C27.26 57.15, 43.84 38.84, 77.94 0.18 M14.04 79.78 C39.01 52.47, 62.68 23.48, 83.59 -0.22 M14.04 79.78 C33.89 54.85, 54.63 32.34, 83.59 -0.22 M20.34 78.63 C36.25 62.6, 51.64 46.59, 88.57 0.14 M20.34 78.63 C41.8 54.4, 63.31 30.25, 88.57 0.14 M25.33 78.99 C49.38 50.72, 74.81 25.52, 94.22 -0.25 M25.33 78.99 C52.31 49.2, 79.88 16.44, 94.22 -0.25 M30.32 79.35 C47.95 59.15, 68.97 36.1, 99.2 0.11 M30.32 79.35 C52.69 53.29, 77 25.8, 99.2 0.11 M35.96 78.96 C54.3 56.49, 70.66 38.15, 104.85 -0.29 M35.96 78.96 C54.98 57.68, 72.01 36.33, 104.85 -0.29 M40.95 79.32 C56.48 60.79, 73.52 38.63, 109.83 0.08 M40.95 79.32 C61.65 55.61, 81.41 32.81, 109.83 0.08 M46.59 78.92 C66.17 57.42, 84.45 33.7, 114.82 0.44 M46.59 78.92 C63.47 59.98, 81.54 41.12, 114.82 0.44 M51.58 79.29 C76.81 49.51, 100.91 21.7, 120.46 0.04 M51.58 79.29 C71.49 56.26, 90.23 34.08, 120.46 0.04 M57.22 78.89 C75.6 59.33, 88.15 42.39, 125.45 0.4 M57.22 78.89 C83.76 48.63, 110.72 16.48, 125.45 0.4 M62.21 79.25 C85.98 53.59, 109.11 27.76, 131.09 0.01 M62.21 79.25 C79.16 58.45, 98.11 37.48, 131.09 0.01 M67.85 78.86 C91.31 48.94, 118.05 21.32, 136.08 0.37 M67.85 78.86 C91.41 50.92, 115.06 23.36, 136.08 0.37 M72.84 79.22 C92.22 56.82, 113.63 32.02, 141.72 -0.03 M72.84 79.22 C95.79 51.49, 119.63 25.68, 141.72 -0.03 M78.48 78.82 C101.98 50.69, 127.9 21.2, 146.71 0.33 M78.48 78.82 C93.87 59.81, 109.64 41.51, 146.71 0.33 M83.47 79.18 C107.24 48.83, 133.42 20.32, 152.35 -0.06 M83.47 79.18 C100.05 59.35, 116.16 40.41, 152.35 -0.06 M89.11 78.79 C111.59 56.01, 129.4 29.17, 157.34 0.3 M89.11 78.79 C115.54 47.31, 141.51 16.72, 157.34 0.3 M94.1 79.15 C106.84 62.29, 122.78 46.11, 162.98 -0.1 M94.1 79.15 C113.95 57.03, 133.73 35.46, 162.98 -0.1 M99.74 78.75 C123.28 48.43, 151.64 21.46, 167.97 0.26 M99.74 78.75 C116.99 58.55, 133.92 37.12, 167.97 0.26 M104.73 79.11 C124.64 57.52, 140.89 35.96, 173.61 -0.13 M104.73 79.11 C118.45 62.08, 132.79 47.35, 173.61 -0.13 M110.37 78.72 C127.84 59.11, 147.15 38.55, 177.29 1.74 M110.37 78.72 C129.13 57.98, 147.66 36.75, 177.29 1.74 M115.36 79.08 C127.84 64.86, 143.71 47.35, 181.62 2.85 M115.36 79.08 C135.44 55.37, 155.22 31.91, 181.62 2.85 M121 78.68 C147.32 48.06, 174.94 19.62, 185.95 3.97 M121 78.68 C144.31 50.86, 168.54 24.02, 185.95 3.97 M125.99 79.04 C151.35 50, 178.23 18.17, 190.28 5.08 M125.99 79.04 C147.4 54.27, 168.67 29.74, 190.28 5.08 M131.63 78.65 C152.97 54.86, 176.31 26.7, 191.99 9.22 M131.63 78.65 C147.4 60.37, 163.15 40.92, 191.99 9.22 M136.62 79.01 C151.47 62.75, 167.83 45.42, 193.69 13.35 M136.62 79.01 C158.15 53.45, 180.51 29.21, 193.69 13.35 M141.6 79.37 C152.06 65.06, 164.08 51.1, 196.06 16.73 M141.6 79.37 C152.47 66.89, 162.66 54.27, 196.06 16.73 M147.25 78.97 C162.59 57.97, 181.32 40.56, 195.8 23.13 M147.25 78.97 C164.27 59.25, 184.07 38.11, 195.8 23.13 M152.23 79.33 C160.73 70.35, 171.82 57.37, 196.19 28.77 M152.23 79.33 C170.03 58.63, 187.28 39.03, 196.19 28.77 M157.88 78.94 C170.37 61.9, 186.31 46.38, 195.93 35.17 M157.88 78.94 C165.62 69.59, 174.34 59.6, 195.93 35.17 M162.86 79.3 C170.86 71.06, 179.57 62.72, 196.32 40.81 M162.86 79.3 C175.51 63.6, 189.72 49.31, 196.32 40.81 M168.51 78.91 C175.66 68.57, 184.01 61.07, 196.06 47.21 M168.51 78.91 C174.34 71.96, 182.31 63.96, 196.06 47.21 M173.49 79.27 C184.42 67.31, 192.44 60.29, 196.46 52.85 M173.49 79.27 C181 72.26, 187.21 64.83, 196.46 52.85 M177.17 81.14 C184.58 72.26, 189.68 64.43, 195.54 60 M177.17 81.14 C182.82 73.49, 190.53 67.13, 195.54 60" stroke="#ffffff" stroke-width="0.5" fill="none"></path><path d="M19.68 0 M19.68 0 C58.61 1.02, 98.57 -0.37, 174.58 0 M19.68 0 C69.56 -0.26, 119.94 -0.21, 174.58 0 M174.58 0 C186.67 -0.52, 195.47 7.62, 194.26 19.68 M174.58 0 C187.69 0.28, 194.74 5.11, 194.26 19.68 M194.26 19.68 C193.17 31.71, 192.58 48.36, 194.26 59.04 M194.26 19.68 C193.78 28.14, 194.76 38.62, 194.26 59.04 M194.26 59.04 C194.68 72.8, 188.35 79.43, 174.58 78.72 M194.26 59.04 C192.24 71.63, 186.18 79.94, 174.58 78.72 M174.58 78.72 C119.47 79.76, 63.54 79.43, 19.68 78.72 M174.58 78.72 C114.62 80.27, 57.02 78.8, 19.68 78.72 M19.68 78.72 C7.21 77.9, -0.38 70.59, 0 59.04 M19.68 78.72 C6.55 80.91, 1.2 73.72, 0 59.04 M0 59.04 C-1.47 51.27, -1.29 41.31, 0 19.68 M0 59.04 C-0.75 50.04, -0.26 41.66, 0 19.68 M0 19.68 C1.5 4.97, 6.86 1.05, 19.68 0 M0 19.68 C1.78 7.61, 8.59 1.26, 19.68 0" stroke="#1e1e1e" stroke-width="1" fill="none"></path></g><g transform="translate(564.0023830391103 267.93669778893104) rotate(0 27.5 12.5)"><text x="27.5" y="0" font-family="Virgil, Segoe UI Emoji" font-size="20px" fill="#1e1e1e" text-anchor="middle" style="white-space: pre;" direction="ltr" dominant-baseline="text-before-edge">REPO</text></g><g stroke-linecap="round" transform="translate(907.0118637928629 395.9753808818547) rotate(0 97.12867314954565 39.35933160308386)"><path d="M5.24 4.55 C5.24 4.55, 5.24 4.55, 5.24 4.55 M5.24 4.55 C5.24 4.55, 5.24 4.55, 5.24 4.55 M1.04 15.48 C6.36 8.94, 8.15 4.58, 12.19 2.65 M1.04 15.48 C4 12.31, 6.49 8.31, 12.19 2.65 M0.78 21.88 C8.24 14.66, 12.52 8.09, 19.8 -0.01 M0.78 21.88 C5.44 17.4, 9.94 10.73, 19.8 -0.01 M1.17 27.52 C9.82 17.48, 16.24 8.6, 24.79 0.35 M1.17 27.52 C6.41 20.06, 13.32 13.6, 24.79 0.35 M0.91 33.92 C6.47 24.93, 15 21.35, 30.43 -0.04 M0.91 33.92 C9.59 24.11, 16.57 15.08, 30.43 -0.04 M0.65 40.32 C15.02 24.29, 25.86 11.8, 35.42 0.32 M0.65 40.32 C14.76 24.06, 27.48 10.78, 35.42 0.32 M1.05 45.96 C10.49 35.7, 19.29 25.34, 41.06 -0.08 M1.05 45.96 C11.88 33.91, 23.25 20.06, 41.06 -0.08 M0.78 52.36 C11.92 39.18, 20.74 27.4, 46.05 0.28 M0.78 52.36 C12.43 38.51, 26 23.92, 46.05 0.28 M1.18 58 C19.18 39.19, 34.81 17.47, 51.7 -0.11 M1.18 58 C14.18 42.23, 28.79 28.11, 51.7 -0.11 M0.92 64.4 C21.56 40.97, 41.46 15.86, 56.68 0.25 M0.92 64.4 C18.34 45.07, 32.71 27.84, 56.68 0.25 M2.62 68.53 C20.86 48.39, 40.53 26.31, 62.33 -0.15 M2.62 68.53 C19.5 48.19, 37.13 28.96, 62.33 -0.15 M4.33 72.67 C18.63 58.8, 33.59 40.15, 67.31 0.21 M4.33 72.67 C25.49 48.28, 47.23 24.67, 67.31 0.21 M7.35 75.29 C26.7 53.15, 42.43 34.22, 72.96 -0.18 M7.35 75.29 C30.16 49.26, 50.86 23.75, 72.96 -0.18 M11.02 77.16 C30.32 56.06, 47.02 32.79, 77.94 0.18 M11.02 77.16 C29.75 57.6, 46.8 36, 77.94 0.18 M14.04 79.78 C34.19 52.54, 58.41 27.2, 83.59 -0.22 M14.04 79.78 C31.35 58.63, 50.78 37.47, 83.59 -0.22 M20.34 78.63 C38.01 57.25, 54.31 38.25, 88.57 0.14 M20.34 78.63 C41.53 55.89, 60.55 33.57, 88.57 0.14 M25.33 78.99 C49.36 48.61, 78.67 20.32, 94.22 -0.25 M25.33 78.99 C41.33 59.86, 58.63 40.25, 94.22 -0.25 M30.32 79.35 C52.7 55.58, 73.05 33.7, 99.2 0.11 M30.32 79.35 C54.08 50.24, 79.03 21.65, 99.2 0.11 M35.96 78.96 C55.17 59.7, 72.38 39.47, 104.85 -0.29 M35.96 78.96 C59.66 52.23, 83.34 25.23, 104.85 -0.29 M40.95 79.32 C66.31 50.95, 87.31 23.8, 109.83 0.08 M40.95 79.32 C68.05 50.34, 94.52 18.9, 109.83 0.08 M46.59 78.92 C61.73 61.97, 76.31 43.68, 114.82 0.44 M46.59 78.92 C68.87 53.16, 90.96 28.41, 114.82 0.44 M51.58 79.29 C67.66 63.8, 78.68 46.35, 120.46 0.04 M51.58 79.29 C65.62 63.83, 79.59 48.26, 120.46 0.04 M57.22 78.89 C76 55.78, 98.91 32.18, 125.45 0.4 M57.22 78.89 C73.31 60.94, 88.86 42.48, 125.45 0.4 M62.21 79.25 C82.51 56.95, 102.24 31.06, 131.09 0.01 M62.21 79.25 C77.28 60.6, 93.64 44.15, 131.09 0.01 M67.85 78.86 C84.98 59.78, 105.38 39.54, 136.08 0.37 M67.85 78.86 C86.3 56.8, 104.25 36.77, 136.08 0.37 M72.84 79.22 C88.86 60.66, 108.45 39.4, 141.72 -0.03 M72.84 79.22 C98.62 49.81, 126.12 18.57, 141.72 -0.03 M78.48 78.82 C97.03 56.05, 117.75 36.96, 146.71 0.33 M78.48 78.82 C96 58.21, 112.95 38.7, 146.71 0.33 M83.47 79.18 C106.73 54.66, 126.56 27.64, 152.35 -0.06 M83.47 79.18 C98.6 61.77, 113.7 44.95, 152.35 -0.06 M89.11 78.79 C108.07 54.97, 130.75 32.58, 157.34 0.3 M89.11 78.79 C114.64 48.45, 140.08 20.6, 157.34 0.3 M94.1 79.15 C112.49 59.75, 127.05 41.59, 162.98 -0.1 M94.1 79.15 C114.75 54.2, 134.79 29.58, 162.98 -0.1 M99.74 78.75 C116.78 58.07, 133.89 42.42, 167.97 0.26 M99.74 78.75 C117.01 57.51, 135.22 37.35, 167.97 0.26 M104.73 79.11 C124.64 58.23, 143.28 33.84, 173.61 -0.13 M104.73 79.11 C125.43 56.05, 145.08 31.91, 173.61 -0.13 M110.37 78.72 C125.99 64.12, 140.98 45.28, 177.29 1.74 M110.37 78.72 C129.26 55.69, 149.48 32.34, 177.29 1.74 M115.36 79.08 C132.45 60.71, 151.64 38.62, 181.62 2.85 M115.36 79.08 C133.44 56.07, 153.86 34.99, 181.62 2.85 M121 78.68 C138.43 57.38, 157.96 37.97, 185.95 3.97 M121 78.68 C141.11 56.03, 159.98 32.82, 185.95 3.97 M125.99 79.04 C144.53 55.14, 164.2 34.99, 190.28 5.08 M125.99 79.04 C139.91 62.47, 154.37 47.48, 190.28 5.08 M131.63 78.65 C150.13 58.89, 168.82 39.18, 191.99 9.22 M131.63 78.65 C148.12 60.27, 164.83 40.12, 191.99 9.22 M136.62 79.01 C148.96 62.52, 161.92 49.17, 193.69 13.35 M136.62 79.01 C151.75 60.95, 167.75 40.89, 193.69 13.35 M141.6 79.37 C157.35 63.25, 172.59 44.84, 196.06 16.73 M141.6 79.37 C153.09 65.81, 163.37 54.6, 196.06 16.73 M147.25 78.97 C157.74 64.95, 168.81 53.5, 195.8 23.13 M147.25 78.97 C162.34 62.93, 175.83 45.8, 195.8 23.13 M152.23 79.33 C163.93 65.24, 177.23 53.66, 196.19 28.77 M152.23 79.33 C165.3 63.9, 178.2 48.85, 196.19 28.77 M157.88 78.94 C166.19 71.21, 172.34 57.93, 195.93 35.17 M157.88 78.94 C173.51 62.24, 186.8 46.72, 195.93 35.17 M162.86 79.3 C177.41 65.36, 189.03 50.63, 196.32 40.81 M162.86 79.3 C174 66.24, 186.05 52.4, 196.32 40.81 M168.51 78.91 C175.64 70.47, 181.06 64.22, 196.06 47.21 M168.51 78.91 C174.46 72.31, 181.17 65.09, 196.06 47.21 M173.49 79.27 C179.14 72.07, 183.97 67.99, 196.46 52.85 M173.49 79.27 C181.81 69.28, 190.17 60.94, 196.46 52.85 M177.17 81.14 C179.41 78.14, 183.9 72.71, 195.54 60 M177.17 81.14 C182.3 76.23, 186.7 71.04, 195.54 60" stroke="#ffffff" stroke-width="0.5" fill="none"></path><path d="M19.68 0 M19.68 0 C70.74 0.04, 123.79 2.43, 174.58 0 M19.68 0 C68.86 -0.49, 117.81 1.09, 174.58 0 M174.58 0 C187 1.29, 192.31 7.66, 194.26 19.68 M174.58 0 C188.66 -2.1, 195 5.62, 194.26 19.68 M194.26 19.68 C195.86 31.78, 195.3 39.8, 194.26 59.04 M194.26 19.68 C194.11 27.36, 193.07 35.75, 194.26 59.04 M194.26 59.04 C195.52 71.24, 186.7 77.27, 174.58 78.72 M194.26 59.04 C194.24 70.25, 189.42 76.89, 174.58 78.72 M174.58 78.72 C126.72 81.69, 78.12 81.66, 19.68 78.72 M174.58 78.72 C135.12 77.29, 94.53 78.9, 19.68 78.72 M19.68 78.72 C8.05 79.89, -0.31 72.53, 0 59.04 M19.68 78.72 C7.55 77.53, -2.27 74.19, 0 59.04 M0 59.04 C-1.76 47.36, -1.09 34.7, 0 19.68 M0 59.04 C0.38 46.99, -0.74 37.08, 0 19.68 M0 19.68 C-0.16 7.49, 7.29 -1.97, 19.68 0 M0 19.68 C0.74 5.16, 8.61 -1.79, 19.68 0" stroke="#1e1e1e" stroke-width="1" fill="none"></path></g><g transform="translate(967.1405369424085 422.83471248493856) rotate(0 37 12.5)"><text x="37" y="0" font-family="Virgil, Segoe UI Emoji" font-size="20px" fill="#1e1e1e" text-anchor="middle" style="white-space: pre;" direction="ltr" dominant-baseline="text-before-edge">OERHub</text></g><g stroke-linecap="round" transform="translate(22.061730652558026 436.60436834310235) rotate(0 97.12867314954565 39.35933160308383)"><path d="M5.24 4.55 C5.24 4.55, 5.24 4.55, 5.24 4.55 M5.24 4.55 C5.24 4.55, 5.24 4.55, 5.24 4.55 M1.04 15.48 C5.66 11.26, 6.98 9.58, 12.19 2.65 M1.04 15.48 C4.91 11.6, 9.58 6.05, 12.19 2.65 M0.78 21.88 C9.75 15.59, 15.26 6.55, 19.8 -0.01 M0.78 21.88 C9.56 12.25, 16.85 3.54, 19.8 -0.01 M1.17 27.52 C8.7 17.34, 18.99 8.04, 24.79 0.35 M1.17 27.52 C7.66 18.5, 16.34 10.54, 24.79 0.35 M0.91 33.92 C10.74 21.66, 22.98 9.18, 30.43 -0.04 M0.91 33.92 C7.93 26.52, 13.53 18.56, 30.43 -0.04 M0.65 40.32 C10.69 26.87, 22.73 13.84, 35.42 0.32 M0.65 40.32 C10.32 30.9, 17.62 19.86, 35.42 0.32 M1.05 45.96 C11.21 32.33, 23.34 19.79, 41.06 -0.08 M1.05 45.96 C17.86 27.87, 32.68 8.91, 41.06 -0.08 M0.78 52.36 C12.62 37.37, 24.4 22.93, 46.05 0.28 M0.78 52.36 C10.6 40.92, 19.14 29.99, 46.05 0.28 M1.18 58 C14.58 40.35, 32.75 21.17, 51.7 -0.11 M1.18 58 C17.69 39.41, 31.86 21.54, 51.7 -0.11 M0.92 64.4 C20.86 43.08, 41.27 21.37, 56.68 0.25 M0.92 64.4 C22.52 39.95, 43.91 15.72, 56.68 0.25 M2.62 68.53 C20.88 46.49, 39.53 26.03, 62.33 -0.15 M2.62 68.53 C24.37 42.35, 48.55 16.72, 62.33 -0.15 M4.33 72.67 C18.07 56.34, 32.56 43.41, 67.31 0.21 M4.33 72.67 C19.97 53.6, 36.59 36.32, 67.31 0.21 M7.35 75.29 C30.32 49.97, 50.48 22.72, 72.96 -0.18 M7.35 75.29 C31.96 48.66, 55.27 20.1, 72.96 -0.18 M11.02 77.16 C25.31 59.88, 40.06 43.99, 77.94 0.18 M11.02 77.16 C28.13 57.54, 45.26 36.99, 77.94 0.18 M14.04 79.78 C42.11 50.23, 67.66 19.33, 83.59 -0.22 M14.04 79.78 C30.16 60.72, 47.43 42.89, 83.59 -0.22 M20.34 78.63 C47.78 48.09, 72.82 16.34, 88.57 0.14 M20.34 78.63 C42.42 52.87, 64.93 25.84, 88.57 0.14 M25.33 78.99 C49.7 52.88, 73.8 21.03, 94.22 -0.25 M25.33 78.99 C45.02 54.95, 66.31 31.35, 94.22 -0.25 M30.32 79.35 C51.65 55.95, 73.02 31.97, 99.2 0.11 M30.32 79.35 C56.16 48.63, 82.05 19.81, 99.2 0.11 M35.96 78.96 C63.01 46.86, 87.74 18.14, 104.85 -0.29 M35.96 78.96 C55.26 57.22, 73.08 35.57, 104.85 -0.29 M40.95 79.32 C55.61 60.41, 72.67 43.48, 109.83 0.08 M40.95 79.32 C65.98 50.69, 89.41 22.94, 109.83 0.08 M46.59 78.92 C63.46 55.89, 83.74 35.33, 114.82 0.44 M46.59 78.92 C63.55 60.7, 77.9 42.86, 114.82 0.44 M51.58 79.29 C69.94 58.28, 84.58 39.59, 120.46 0.04 M51.58 79.29 C70.36 58.99, 86.93 38.32, 120.46 0.04 M57.22 78.89 C71.61 61.62, 90.52 39.6, 125.45 0.4 M57.22 78.89 C73.26 59.98, 88.53 40.61, 125.45 0.4 M62.21 79.25 C82.53 56.05, 100.58 35.96, 131.09 0.01 M62.21 79.25 C82.93 56.63, 102.96 34, 131.09 0.01 M67.85 78.86 C92.27 48.2, 116.3 22.4, 136.08 0.37 M67.85 78.86 C88.81 53.75, 110.75 28.22, 136.08 0.37 M72.84 79.22 C88.34 64.07, 101.9 45.25, 141.72 -0.03 M72.84 79.22 C93.48 56.93, 111.4 35.32, 141.72 -0.03 M78.48 78.82 C104.96 48.57, 131.85 20.16, 146.71 0.33 M78.48 78.82 C97.58 56.25, 118.17 33.53, 146.71 0.33 M83.47 79.18 C108.01 52.66, 130.45 29.48, 152.35 -0.06 M83.47 79.18 C104.52 55.48, 124.35 31.48, 152.35 -0.06 M89.11 78.79 C108.76 56.65, 126.93 35.88, 157.34 0.3 M89.11 78.79 C110.67 52.39, 132.88 26.92, 157.34 0.3 M94.1 79.15 C115.95 52.9, 138.95 28.16, 162.98 -0.1 M94.1 79.15 C108.49 62.24, 123.03 45.23, 162.98 -0.1 M99.74 78.75 C117.3 56.36, 138.32 35.95, 167.97 0.26 M99.74 78.75 C115.77 61.26, 130.58 43.75, 167.97 0.26 M104.73 79.11 C125.84 55.87, 146.33 34.14, 173.61 -0.13 M104.73 79.11 C129.91 50.22, 154 22.14, 173.61 -0.13 M110.37 78.72 C128.09 57.41, 144.8 37.65, 177.29 1.74 M110.37 78.72 C129.68 57.43, 148.17 35.47, 177.29 1.74 M115.36 79.08 C138.44 53.45, 156.13 31.26, 181.62 2.85 M115.36 79.08 C132.05 57.17, 151.66 38.08, 181.62 2.85 M121 78.68 C141.6 53.84, 164.93 31.67, 185.95 3.97 M121 78.68 C135.35 61.12, 150.68 42.9, 185.95 3.97 M125.99 79.04 C144.91 56, 162.04 36.36, 190.28 5.08 M125.99 79.04 C148.21 54.7, 168.71 31.23, 190.28 5.08 M131.63 78.65 C148.86 59.61, 166.3 41.23, 191.99 9.22 M131.63 78.65 C154.45 51.98, 176.32 26.81, 191.99 9.22 M136.62 79.01 C154.67 59.09, 168.83 40.58, 193.69 13.35 M136.62 79.01 C152.64 59.15, 170.56 41.43, 193.69 13.35 M141.6 79.37 C156.19 61.85, 173.36 41.15, 196.06 16.73 M141.6 79.37 C163.91 55.7, 185.22 30.72, 196.06 16.73 M147.25 78.97 C167.42 57.61, 184.24 34.04, 195.8 23.13 M147.25 78.97 C157.5 66.58, 167.37 56.11, 195.8 23.13 M152.23 79.33 C167.14 61.48, 182.38 44.55, 196.19 28.77 M152.23 79.33 C165.32 63.52, 178.2 48.41, 196.19 28.77 M157.88 78.94 C171.01 66.65, 181.48 52.38, 195.93 35.17 M157.88 78.94 C170.72 63.84, 181.98 49.84, 195.93 35.17 M162.86 79.3 C170.06 70.46, 175.48 61.6, 196.32 40.81 M162.86 79.3 C174.51 66.43, 185.95 52.11, 196.32 40.81 M168.51 78.91 C177.42 70.32, 185.12 60.84, 196.06 47.21 M168.51 78.91 C178.04 68.82, 186.36 58.44, 196.06 47.21 M173.49 79.27 C182.18 69.28, 189.31 59.15, 196.46 52.85 M173.49 79.27 C180.8 70.23, 186.17 62.82, 196.46 52.85 M177.17 81.14 C179.03 75.05, 186.14 71.48, 195.54 60 M177.17 81.14 C181.08 76.6, 185.71 70.72, 195.54 60" stroke="#ffffff" stroke-width="0.5" fill="none"></path><path d="M19.68 0 M19.68 0 C76.07 0.38, 130.68 -1.54, 174.58 0 M19.68 0 C76.76 -0.87, 136.34 -0.16, 174.58 0 M174.58 0 C188.87 -0.31, 194.63 7.42, 194.26 19.68 M174.58 0 C186.51 -2.27, 196.29 6.55, 194.26 19.68 M194.26 19.68 C194.03 31.7, 193.16 45.48, 194.26 59.04 M194.26 19.68 C193.89 32.89, 195.42 47.1, 194.26 59.04 M194.26 59.04 C195.19 72.89, 185.73 79.36, 174.58 78.72 M194.26 59.04 C192.86 74.2, 185.91 79.23, 174.58 78.72 M174.58 78.72 C114.83 79.07, 53.5 79.37, 19.68 78.72 M174.58 78.72 C141.75 79.42, 109.5 78.74, 19.68 78.72 M19.68 78.72 C4.58 77.37, 0.32 70.53, 0 59.04 M19.68 78.72 C5.35 76.57, -1.02 71.18, 0 59.04 M0 59.04 C1.55 45.42, 1.87 35.72, 0 19.68 M0 59.04 C-0.09 44.99, 0.05 30.54, 0 19.68 M0 19.68 C-1.94 7.82, 5.65 0.3, 19.68 0 M0 19.68 C-1.51 8.37, 8.4 -1.52, 19.68 0" stroke="#1e1e1e" stroke-width="1" fill="none"></path></g><g transform="translate(57.190403802103674 463.46369994618624) rotate(0 62 12.5)"><text x="62" y="0" font-family="Virgil, Segoe UI Emoji" font-size="20px" fill="#1e1e1e" text-anchor="middle" style="white-space: pre;" direction="ltr" dominant-baseline="text-before-edge">TeachCenter</text></g><g stroke-linecap="round"><g transform="translate(211.87528144807538 79.1093221491944) rotate(0 140.12406197596573 79.26112021240063)"><path d="M-0.28 0.71 C46.64 26.96, 233.81 132.25, 280.53 158.49 M1.77 0.03 C48.7 25.86, 233.77 130.75, 280.06 156.74" stroke="#1e1e1e" stroke-width="1" fill="none"></path></g><g transform="translate(211.87528144807538 79.1093221491944) rotate(0 140.12406197596573 79.26112021240063)"><path d="M251.64 153.35 C258.17 153.7, 264.07 152.76, 279.06 155.96 M251.05 152.74 C257.92 153.67, 264.72 154.41, 279.81 156.61" stroke="#1e1e1e" stroke-width="1" fill="none"></path></g><g transform="translate(211.87528144807538 79.1093221491944) rotate(0 140.12406197596573 79.26112021240063)"><path d="M261.73 135.47 C266.18 139.72, 269.87 142.71, 279.06 155.96 M261.13 134.87 C265.6 139.94, 270.06 144.81, 279.81 156.61" stroke="#1e1e1e" stroke-width="1" fill="none"></path></g></g><mask></mask><g stroke-linecap="round"><g transform="translate(225.84149588787932 470.88507651353046) rotate(0 132.5131611676385 -74.10274705773446)"><path d="M0.92 -0.06 C45.09 -24.83, 221.18 -123.41, 265.08 -148.14 M-0.05 -1.14 C43.91 -25.77, 219.49 -122.36, 263.93 -146.74" stroke="#1e1e1e" stroke-width="1" fill="none"></path></g><g transform="translate(225.84149588787932 470.88507651353046) rotate(0 132.5131611676385 -74.10274705773446)"><path d="M244.06 -124.82 C249.73 -133.24, 255.27 -136.75, 262.66 -147.65 M244.15 -124.27 C249.44 -130.14, 255.85 -136.63, 263.7 -147.72" stroke="#1e1e1e" stroke-width="1" fill="none"></path></g><g transform="translate(225.84149588787932 470.88507651353046) rotate(0 132.5131611676385 -74.10274705773446)"><path d="M234.17 -142.8 C242.96 -145.75, 251.56 -143.71, 262.66 -147.65 M234.27 -142.26 C242.43 -143.14, 251.56 -144.67, 263.7 -147.72" stroke="#1e1e1e" stroke-width="1" fill="none"></path></g></g><mask></mask><g stroke-linecap="round"><g transform="translate(698.028012732786 321.33670135735906) rotate(0 100.9935761552706 40.20432289932057)"><path d="M0.7 -1.04 C34.43 12.29, 168.85 66.69, 202.39 80.28 M-0.4 1.03 C33.21 14.47, 168.06 68.02, 201.64 81.44" stroke="#1e1e1e" stroke-width="1" fill="none"></path></g><g transform="translate(698.028012732786 321.33670135735906) rotate(0 100.9935761552706 40.20432289932057)"><path d="M169.93 81.19 C179.41 80.5, 188.78 80.4, 200.72 80.99 M171.58 81.17 C183.18 80.18, 193.17 81.56, 202.51 81.25" stroke="#1e1e1e" stroke-width="1" fill="none"></path></g><g transform="translate(698.028012732786 321.33670135735906) rotate(0 100.9935761552706 40.20432289932057)"><path d="M177.52 62.12 C184.79 67.16, 191.9 72.75, 200.72 80.99 M179.17 62.1 C188.14 68.03, 195.37 76.35, 202.51 81.25" stroke="#1e1e1e" stroke-width="1" fill="none"></path></g></g><mask></mask><g transform="translate(350.26776998795117 114.11178036944753) rotate(0 7.5 12.5)"><text x="0" y="0" font-family="Virgil, Segoe UI Emoji" font-size="20px" fill="#1e1e1e" text-anchor="start" style="white-space: pre;" direction="ltr" dominant-baseline="text-before-edge">M</text></g><g transform="translate(318.52637353385103 175.05526156131938) rotate(0 17 12.5)"><text x="0" y="0" font-family="Virgil, Segoe UI Emoji" font-size="20px" fill="#1e1e1e" text-anchor="start" style="white-space: pre;" direction="ltr" dominant-baseline="text-before-edge">Job</text></g><g transform="translate(317.3746528246709 346.6553609950988) rotate(0 32 12.5)"><text x="0" y="0" font-family="Virgil, Segoe UI Emoji" font-size="20px" fill="#1e1e1e" text-anchor="start" style="white-space: pre;" direction="ltr" dominant-baseline="text-before-edge">M + D</text></g><g transform="translate(368.8181340165429 402.52021875431456) rotate(0 17 12.5)"><text x="0" y="0" font-family="Virgil, Segoe UI Emoji" font-size="20px" fill="#1e1e1e" text-anchor="start" style="white-space: pre;" direction="ltr" dominant-baseline="text-before-edge">Job</text></g><g transform="translate(743.8610860187896 303.2905032358831) rotate(0 43 12.5)"><text x="0" y="0" font-family="Virgil, Segoe UI Emoji" font-size="20px" fill="#1e1e1e" text-anchor="start" style="white-space: pre;" direction="ltr" dominant-baseline="text-before-edge">OAI-PMH</text></g><g transform="translate(776.9900734800374 358.08226371857484) rotate(0 7.5 12.5)"><text x="0" y="0" font-family="Virgil, Segoe UI Emoji" font-size="20px" fill="#1e1e1e" text-anchor="start" style="white-space: pre;" direction="ltr" dominant-baseline="text-before-edge">M</text></g><g stroke-linecap="round" transform="translate(900.6635845020428 10) rotate(0 97.12867314954565 39.35933160308386)"><path d="M5.24 4.55 C5.24 4.55, 5.24 4.55, 5.24 4.55 M5.24 4.55 C5.24 4.55, 5.24 4.55, 5.24 4.55 M1.04 15.48 C3.92 9.06, 9.8 4.66, 12.19 2.65 M1.04 15.48 C4.46 12.55, 6.38 8.25, 12.19 2.65 M0.78 21.88 C9.02 11.2, 16.42 3.34, 19.8 -0.01 M0.78 21.88 C9.31 13.3, 16.7 5.63, 19.8 -0.01 M1.17 27.52 C4.87 20.12, 12.38 13.36, 24.79 0.35 M1.17 27.52 C9.17 16.63, 19.2 6.28, 24.79 0.35 M0.91 33.92 C7.69 26.05, 15.85 18.1, 30.43 -0.04 M0.91 33.92 C13.18 21.41, 23.02 8.42, 30.43 -0.04 M0.65 40.32 C9.84 27.32, 21.15 17.27, 35.42 0.32 M0.65 40.32 C12.67 26.78, 23.64 14.27, 35.42 0.32 M1.05 45.96 C13.56 32.68, 22.7 17.58, 41.06 -0.08 M1.05 45.96 C9.44 37.12, 16.05 28.39, 41.06 -0.08 M0.78 52.36 C17.65 32.75, 34.18 15.38, 46.05 0.28 M0.78 52.36 C17.29 33.55, 34.71 14.78, 46.05 0.28 M1.18 58 C17.67 39.54, 35.56 18.96, 51.7 -0.11 M1.18 58 C21.02 34.93, 40.24 13.33, 51.7 -0.11 M0.92 64.4 C13.7 51.5, 22.75 38.55, 56.68 0.25 M0.92 64.4 C20.14 41.64, 38.71 20.45, 56.68 0.25 M2.62 68.53 C18.15 51.33, 34.04 34.44, 62.33 -0.15 M2.62 68.53 C17.66 50.05, 34.92 31.65, 62.33 -0.15 M4.33 72.67 C28.42 43.7, 55.27 16.35, 67.31 0.21 M4.33 72.67 C21.84 52.17, 39.93 32.97, 67.31 0.21 M7.35 75.29 C26.3 56.29, 41.04 38.8, 72.96 -0.18 M7.35 75.29 C20.02 59.61, 35.06 43.6, 72.96 -0.18 M11.02 77.16 C34.33 46.1, 61.34 16.94, 77.94 0.18 M11.02 77.16 C34.52 51.18, 56.28 27.07, 77.94 0.18 M14.04 79.78 C29.33 64.21, 40.02 46.49, 83.59 -0.22 M14.04 79.78 C41.58 48.13, 68.97 16.94, 83.59 -0.22 M20.34 78.63 C36.41 63.3, 50.43 43.98, 88.57 0.14 M20.34 78.63 C42.64 54.21, 62.71 29.91, 88.57 0.14 M25.33 78.99 C46.99 56, 67.56 31.23, 94.22 -0.25 M25.33 78.99 C44.18 57.55, 61.35 36.77, 94.22 -0.25 M30.32 79.35 C47.51 62.88, 62.19 42.33, 99.2 0.11 M30.32 79.35 C52.55 53.34, 75.9 26.08, 99.2 0.11 M35.96 78.96 C51.69 59.12, 67.69 39.94, 104.85 -0.29 M35.96 78.96 C51.54 61.97, 68.45 44.16, 104.85 -0.29 M40.95 79.32 C68.38 50.47, 95.38 19.87, 109.83 0.08 M40.95 79.32 C62.93 51.91, 87.21 26.95, 109.83 0.08 M46.59 78.92 C73.35 48.34, 98.91 18.41, 114.82 0.44 M46.59 78.92 C71.4 48.03, 98.77 18.23, 114.82 0.44 M51.58 79.29 C74.11 55.56, 93.11 29.47, 120.46 0.04 M51.58 79.29 C77.79 49.53, 104.71 19.41, 120.46 0.04 M57.22 78.89 C71.65 62.38, 87.93 43.62, 125.45 0.4 M57.22 78.89 C72.78 62.64, 86.8 45.93, 125.45 0.4 M62.21 79.25 C80.23 58.62, 99.02 36.75, 131.09 0.01 M62.21 79.25 C89.75 49.08, 115.43 19.12, 131.09 0.01 M67.85 78.86 C90.63 51.37, 114.79 23.27, 136.08 0.37 M67.85 78.86 C83.84 59.54, 101.67 38.53, 136.08 0.37 M72.84 79.22 C100.79 47.14, 127.26 19.34, 141.72 -0.03 M72.84 79.22 C96.81 51.16, 121.02 22.91, 141.72 -0.03 M78.48 78.82 C93.37 63.24, 107.08 46.1, 146.71 0.33 M78.48 78.82 C93.61 61.56, 109.84 42.37, 146.71 0.33 M83.47 79.18 C95.95 63.25, 111.67 46.24, 152.35 -0.06 M83.47 79.18 C108.92 51.81, 131.36 24.47, 152.35 -0.06 M89.11 78.79 C104.5 63.13, 117.74 44.62, 157.34 0.3 M89.11 78.79 C112.85 50.34, 138.56 22.67, 157.34 0.3 M94.1 79.15 C118.2 49.03, 145.09 20.31, 162.98 -0.1 M94.1 79.15 C118.07 51.12, 141.86 22.84, 162.98 -0.1 M99.74 78.75 C114.73 63.11, 127.11 46.53, 167.97 0.26 M99.74 78.75 C114.4 63.72, 129.09 47.31, 167.97 0.26 M104.73 79.11 C128.84 55.39, 149.37 29.46, 173.61 -0.13 M104.73 79.11 C129.76 50.03, 153.73 21.31, 173.61 -0.13 M110.37 78.72 C126.37 60.92, 139.97 46.9, 177.29 1.74 M110.37 78.72 C125.46 60.67, 141.05 44.31, 177.29 1.74 M115.36 79.08 C141.95 50.22, 167.07 21.57, 181.62 2.85 M115.36 79.08 C136.7 55.83, 156.04 31.81, 181.62 2.85 M121 78.68 C137.89 63.07, 151.93 46.38, 185.95 3.97 M121 78.68 C137.84 59.31, 155.02 40.89, 185.95 3.97 M125.99 79.04 C142.73 58.3, 164.07 34.99, 190.28 5.08 M125.99 79.04 C149.37 52.17, 173.37 26.24, 190.28 5.08 M131.63 78.65 C148.33 59.53, 165.74 39.15, 191.99 9.22 M131.63 78.65 C153.9 50.75, 177.91 22.84, 191.99 9.22 M136.62 79.01 C151.68 59.17, 166.92 40.88, 193.69 13.35 M136.62 79.01 C157.39 53.39, 180.24 27.69, 193.69 13.35 M141.6 79.37 C155.6 65.58, 166.21 50.67, 196.06 16.73 M141.6 79.37 C160.02 58.07, 178.26 36.09, 196.06 16.73 M147.25 78.97 C167.62 58.62, 183.07 35.97, 195.8 23.13 M147.25 78.97 C162.23 61.63, 176.78 46.16, 195.8 23.13 M152.23 79.33 C162.38 67, 173.59 55.3, 196.19 28.77 M152.23 79.33 C162.67 67.51, 172.83 55.1, 196.19 28.77 M157.88 78.94 C169.14 65.31, 183.5 50.39, 195.93 35.17 M157.88 78.94 C171.83 63.96, 183.04 48.93, 195.93 35.17 M162.86 79.3 C175.98 64.22, 185.54 50.79, 196.32 40.81 M162.86 79.3 C170.54 69.06, 180.15 60.99, 196.32 40.81 M168.51 78.91 C173.22 71.87, 179.65 64.68, 196.06 47.21 M168.51 78.91 C179.56 67.33, 187.81 56.7, 196.06 47.21 M173.49 79.27 C181.8 67.52, 191.99 59.9, 196.46 52.85 M173.49 79.27 C180.98 70.44, 189.51 60.11, 196.46 52.85 M177.17 81.14 C185.08 73.73, 190.37 67.6, 195.54 60 M177.17 81.14 C183.04 73.6, 190.32 65.75, 195.54 60" stroke="#ffffff" stroke-width="0.5" fill="none"></path><path d="M19.68 0 M19.68 0 C72.2 0.03, 126.07 2.43, 174.58 0 M19.68 0 C78.11 -0.29, 138.1 -0.01, 174.58 0 M174.58 0 C186.9 1.15, 195.49 4.93, 194.26 19.68 M174.58 0 C185.78 1.22, 194.62 8.46, 194.26 19.68 M194.26 19.68 C192.38 33.84, 195.89 43.07, 194.26 59.04 M194.26 19.68 C194.63 27.65, 193.1 36.72, 194.26 59.04 M194.26 59.04 C193.41 74.01, 189.32 80.49, 174.58 78.72 M194.26 59.04 C196 72, 188.27 80.53, 174.58 78.72 M174.58 78.72 C125.54 76.56, 78.49 77.48, 19.68 78.72 M174.58 78.72 C128.84 79.86, 82.44 79.26, 19.68 78.72 M19.68 78.72 C6.61 77.41, -1.78 72.46, 0 59.04 M19.68 78.72 C4.68 80.45, -0.5 72.49, 0 59.04 M0 59.04 C-0.65 47.06, -0.42 36.97, 0 19.68 M0 59.04 C-0.17 46.05, 0.05 30.92, 0 19.68 M0 19.68 C0.58 8.26, 8.42 -0.55, 19.68 0 M0 19.68 C-1.09 5.22, 6.81 -0.3, 19.68 0" stroke="#1e1e1e" stroke-width="1" fill="none"></path></g><g transform="translate(971.2922576515884 36.85933160308386) rotate(0 26.5 12.5)"><text x="26.5" y="0" font-family="Virgil, Segoe UI Emoji" font-size="20px" fill="#1e1e1e" text-anchor="middle" style="white-space: pre;" direction="ltr" dominant-baseline="text-before-edge">ALMA</text></g><g stroke-linecap="round"><g transform="translate(667.3965029725282 228.38080760420723) rotate(0 112.13791896080704 -66.71498329945089)"><path d="M1.06 -0.01 C38.37 -22.05, 186.41 -111.37, 223.22 -133.42" stroke="#1e1e1e" stroke-width="1.5" fill="none" stroke-dasharray="8 9"></path></g><g transform="translate(667.3965029725282 228.38080760420723) rotate(0 112.13791896080704 -66.71498329945089)"><path d="M204.33 -109.5 C207.55 -117.7, 214.05 -122.82, 222.45 -133.61" stroke="#1e1e1e" stroke-width="1.5" fill="none"></path></g><g transform="translate(667.3965029725282 228.38080760420723) rotate(0 112.13791896080704 -66.71498329945089)"><path d="M193.76 -127.09 C199.42 -131.02, 208.55 -131.77, 222.45 -133.61" stroke="#1e1e1e" stroke-width="1.5" fill="none"></path></g></g><mask></mask><g transform="translate(810.0011257923013 148.58904712151536) rotate(0 7.5 12.5)"><text x="0" y="0" font-family="Virgil, Segoe UI Emoji" font-size="20px" fill="#1e1e1e" text-anchor="start" style="white-space: pre;" direction="ltr" dominant-baseline="text-before-edge">M</text></g><g transform="translate(745.1307418769536 126.80833895108756) rotate(0 17 12.5)"><text x="0" y="0" font-family="Virgil, Segoe UI Emoji" font-size="20px" fill="#1e1e1e" text-anchor="start" style="white-space: pre;" direction="ltr" dominant-baseline="text-before-edge">Job</text></g></svg>