<svg version="1.1" xmlns="http://www.w3.org/2000/svg" viewBox="0 0 1308.7006960364556 878.9221880479431" width="1308.7006960364556" height="878.9221880479431">
  <!-- svg-source:excalidraw -->
  
  <defs>
    <style class="style-fonts">
      @font-face {
        font-family: "Virgil";
        src: url("https://excalidraw.com/Virgil.woff2");
      }
      @font-face {
        font-family: "Cascadia";
        src: url("https://excalidraw.com/Cascadia.woff2");
      }
    </style>
  </defs>
  <rect x="0" y="0" width="1308.7006960364556" height="878.9221880479431" fill="#ffffff"></rect><g stroke-linecap="round" transform="translate(10 106.49384522046373) rotate(0 81.25797492249569 37.454847815837866)"><path d="M4.98 4.33 C4.98 4.33, 4.98 4.33, 4.98 4.33 M4.98 4.33 C4.98 4.33, 4.98 4.33, 4.98 4.33 M0.79 15.26 C4.72 11.4, 5 11.74, 11.94 2.43 M0.79 15.26 C4.6 10.85, 9.32 6.29, 11.94 2.43 M1.18 20.9 C5.14 13.58, 14.25 5.99, 18.9 0.53 M1.18 20.9 C5.67 15.05, 11.99 9.22, 18.9 0.53 M0.92 27.3 C9.33 18.48, 15.22 8.84, 24.54 0.13 M0.92 27.3 C8.75 18.56, 16.29 8.85, 24.54 0.13 M1.31 32.94 C12.52 19.36, 21.68 7.81, 29.53 0.49 M1.31 32.94 C9.28 24.23, 16.51 15.64, 29.53 0.49 M1.05 39.34 C15.21 23.09, 25.83 10.31, 35.17 0.1 M1.05 39.34 C11.05 28.61, 19.9 18.16, 35.17 0.1 M0.79 45.74 C15.76 27.02, 31.19 11.39, 40.16 0.46 M0.79 45.74 C11.73 32.2, 23.65 18.43, 40.16 0.46 M1.19 51.38 C17.34 32.76, 32.1 15.78, 45.8 0.06 M1.19 51.38 C17.43 33.17, 34.83 12.75, 45.8 0.06 M0.93 57.78 C14.9 40.61, 29.5 26.52, 50.79 0.42 M0.93 57.78 C12.99 44.53, 24.66 31.29, 50.79 0.42 M1.98 62.67 C18.65 45.54, 34.9 24.65, 56.43 0.03 M1.98 62.67 C15.36 45.69, 28.71 30.39, 56.43 0.03 M3.03 67.56 C21.08 46.34, 41.74 23.44, 61.42 0.39 M3.03 67.56 C22 44.21, 42.81 22.79, 61.42 0.39 M5.39 70.94 C23.65 52.53, 38.43 32.39, 67.06 -0.01 M5.39 70.94 C27 46.97, 47.34 23.44, 67.06 -0.01 M8.41 73.56 C31.9 46.46, 56.34 18.3, 72.05 0.35 M8.41 73.56 C32.23 45.98, 54.72 20.68, 72.05 0.35 M12.74 74.67 C33.81 52.43, 52.2 28.35, 77.69 -0.04 M12.74 74.67 C31.74 52.62, 51.46 28.89, 77.69 -0.04 M17.73 75.03 C44.04 48.35, 66.42 18.37, 82.68 0.32 M17.73 75.03 C43.78 45.73, 67.92 17.14, 82.68 0.32 M21.4 76.9 C35.34 62.95, 47.8 46.77, 87.66 0.68 M21.4 76.9 C36.25 60.18, 50.9 42.67, 87.66 0.68 M26.39 77.26 C45.55 55.52, 65.32 33.93, 93.31 0.28 M26.39 77.26 C46.29 54.09, 65.82 32.04, 93.31 0.28 M32.03 76.87 C50.82 54.39, 71.29 35.13, 98.29 0.64 M32.03 76.87 C46.78 58.91, 61.38 43.2, 98.29 0.64 M37.02 77.23 C58.84 53.77, 81.42 26.23, 103.94 0.25 M37.02 77.23 C56.47 53.68, 76.55 30.67, 103.94 0.25 M42.66 76.84 C63.09 54.67, 79.81 33.13, 108.92 0.61 M42.66 76.84 C58.8 57.38, 75.61 38.68, 108.92 0.61 M47.65 77.2 C72.23 46.11, 98.83 19.66, 114.57 0.21 M47.65 77.2 C64.92 57.83, 81.53 39.08, 114.57 0.21 M53.29 76.8 C74.01 53.65, 99.25 25.28, 119.55 0.57 M53.29 76.8 C71.3 55.38, 90.97 32.71, 119.55 0.57 M58.28 77.16 C82.4 49.56, 106.91 22.88, 125.2 0.18 M58.28 77.16 C78.45 52.4, 102 27.15, 125.2 0.18 M63.92 76.77 C86.43 51.05, 113.44 22.52, 130.18 0.54 M63.92 76.77 C83.35 54.44, 103.87 31.85, 130.18 0.54 M68.91 77.13 C84.02 60.21, 99.87 40.75, 135.83 0.15 M68.91 77.13 C88.95 52.77, 109.75 30.49, 135.83 0.15 M74.55 76.73 C94.19 54.18, 112.75 32.3, 140.81 0.51 M74.55 76.73 C96.44 50.52, 118.72 24.78, 140.81 0.51 M79.54 77.09 C96 61.19, 110.85 43.56, 145.14 1.62 M79.54 77.09 C100.88 52.1, 123.09 27.36, 145.14 1.62 M84.53 77.45 C103.11 54.89, 122.67 37.08, 149.48 2.74 M84.53 77.45 C98.44 60.26, 115.69 41.77, 149.48 2.74 M90.17 77.06 C117.05 49.9, 142.47 20.13, 154.46 3.1 M90.17 77.06 C112.51 52.67, 133.86 27.01, 154.46 3.1 M95.16 77.42 C110.89 62.07, 123.62 43.73, 158.14 4.97 M95.16 77.42 C113.38 55.72, 131.49 35.33, 158.14 4.97 M100.8 77.02 C117.82 58.27, 131.16 40.96, 160.5 8.34 M100.8 77.02 C113.84 62.29, 126.61 46.1, 160.5 8.34 M105.79 77.38 C119.42 60.46, 133.8 43.13, 162.21 12.48 M105.79 77.38 C128.01 52.73, 150.17 27.59, 162.21 12.48 M111.43 76.99 C131.09 54.98, 150.76 32.37, 164.57 15.86 M111.43 76.99 C125.79 61.51, 138.86 43.83, 164.57 15.86 M116.42 77.35 C131.55 58.6, 144.51 44.11, 164.31 22.25 M116.42 77.35 C129.1 62.23, 141.87 48.08, 164.31 22.25 M122.06 76.95 C137.64 61.61, 150.11 43, 164.7 27.9 M122.06 76.95 C135.37 61.49, 149.69 45.17, 164.7 27.9 M127.05 77.31 C138 62.85, 150.02 53.55, 164.44 34.3 M127.05 77.31 C137.96 65.99, 146.59 55.26, 164.44 34.3 M132.69 76.92 C141.3 69.63, 148.25 59.95, 164.18 40.69 M132.69 76.92 C140.15 68.45, 147.18 60.6, 164.18 40.69 M137.68 77.28 C146.95 65.37, 156.05 57.12, 164.57 46.34 M137.68 77.28 C148.27 64.98, 157.86 52.78, 164.57 46.34 M144.63 75.38 C152.43 66.3, 157.66 58.65, 164.31 52.73 M144.63 75.38 C152.57 66.75, 159.14 57.32, 164.31 52.73 M150.93 74.23 C155.91 70.48, 160.69 62.82, 164.71 58.38 M150.93 74.23 C153.25 70.42, 156.59 66.03, 164.71 58.38" stroke="#ffffff" stroke-width="0.5" fill="none"></path><path d="M18.73 0 M18.73 0 C56.11 0.66, 88.13 0.95, 143.79 0 M18.73 0 C67.33 -0.1, 118.54 0.33, 143.79 0 M143.79 0 C155.68 -1.17, 163.35 5.43, 162.52 18.73 M143.79 0 C154.49 -2.21, 161 5.23, 162.52 18.73 M162.52 18.73 C160.73 31.5, 163.2 43.72, 162.52 56.18 M162.52 18.73 C163 33.2, 162.33 49.21, 162.52 56.18 M162.52 56.18 C160.84 67.67, 156.3 76.24, 143.79 74.91 M162.52 56.18 C162.97 70.24, 153.98 75.43, 143.79 74.91 M143.79 74.91 C117.48 73.34, 88.97 75.33, 18.73 74.91 M143.79 74.91 C105.29 76.37, 67.36 75.28, 18.73 74.91 M18.73 74.91 C4.53 75.95, -0.02 68.06, 0 56.18 M18.73 74.91 C4.45 76, -0.02 66.61, 0 56.18 M0 56.18 C-0.6 46.53, -1.44 40.34, 0 18.73 M0 56.18 C-0.3 44.81, -0.4 33.92, 0 18.73 M0 18.73 C0.05 6.99, 5.65 -0.14, 18.73 0 M0 18.73 C-1.76 6.01, 7.2 -0.35, 18.73 0" stroke="#1e1e1e" stroke-width="1" fill="none"></path></g><g transform="translate(71.25797492249569 131.4486930363016) rotate(0 20 12.5)"><text x="20" y="0" font-family="Virgil, Segoe UI Emoji" font-size="20px" fill="#1e1e1e" text-anchor="middle" style="white-space: pre;" direction="ltr" dominant-baseline="text-before-edge">CMS</text></g><g stroke-linecap="round" transform="translate(385.8181340165429 103.3197055750538) rotate(0 81.25797492249569 37.454847815837866)"><path d="M4.98 4.33 C4.98 4.33, 4.98 4.33, 4.98 4.33 M4.98 4.33 C4.98 4.33, 4.98 4.33, 4.98 4.33 M0.79 15.26 C5.72 8.83, 9.59 5.19, 11.94 2.43 M0.79 15.26 C4.76 11.19, 8.68 6.37, 11.94 2.43 M1.18 20.9 C6.69 14.22, 14.17 7.99, 18.9 0.53 M1.18 20.9 C6.42 15.52, 12.28 8.56, 18.9 0.53 M0.92 27.3 C7.66 18.51, 13.41 11.81, 24.54 0.13 M0.92 27.3 C8.17 17.63, 17.01 9.62, 24.54 0.13 M1.31 32.94 C7.93 23.76, 17.4 15.83, 29.53 0.49 M1.31 32.94 C7.54 25.12, 14.37 17.72, 29.53 0.49 M1.05 39.34 C11.02 28.46, 20.04 14.84, 35.17 0.1 M1.05 39.34 C14.82 23.38, 27.08 9.26, 35.17 0.1 M0.79 45.74 C14.9 31.24, 25.22 16.05, 40.16 0.46 M0.79 45.74 C11.79 32.99, 24.1 19.04, 40.16 0.46 M1.19 51.38 C15.86 38, 25.33 22.26, 45.8 0.06 M1.19 51.38 C12.43 38.91, 25.36 24.4, 45.8 0.06 M0.93 57.78 C14.17 41.98, 27.08 28.05, 50.79 0.42 M0.93 57.78 C12.13 44.35, 24.64 30.79, 50.79 0.42 M1.98 62.67 C17.99 42.77, 35.25 22.7, 56.43 0.03 M1.98 62.67 C13.76 49.12, 26.94 36.52, 56.43 0.03 M3.03 67.56 C22.72 47.65, 38.98 26.82, 61.42 0.39 M3.03 67.56 C16.38 52.73, 30.22 35.25, 61.42 0.39 M5.39 70.94 C26.5 47.3, 42.85 29.31, 67.06 -0.01 M5.39 70.94 C26.67 46.53, 47.33 23.44, 67.06 -0.01 M8.41 73.56 C23.68 57.45, 39.71 39.68, 72.05 0.35 M8.41 73.56 C31.04 49.23, 51.69 24.78, 72.05 0.35 M12.74 74.67 C30.25 56.88, 44.21 40.06, 77.69 -0.04 M12.74 74.67 C28.15 57.99, 41.31 41.91, 77.69 -0.04 M17.73 75.03 C34.05 55.7, 50.61 36.46, 82.68 0.32 M17.73 75.03 C39.9 50.8, 62.31 24.75, 82.68 0.32 M21.4 76.9 C42.26 52.6, 65.46 28.65, 87.66 0.68 M21.4 76.9 C43.28 51.62, 65.52 26.35, 87.66 0.68 M26.39 77.26 C47.56 54.81, 67.49 27.37, 93.31 0.28 M26.39 77.26 C50.66 49.96, 74.41 22.1, 93.31 0.28 M32.03 76.87 C51.19 58.36, 66.05 38.86, 98.29 0.64 M32.03 76.87 C49.02 58.54, 64.9 40.22, 98.29 0.64 M37.02 77.23 C52.19 61.02, 66.73 44.01, 103.94 0.25 M37.02 77.23 C53.23 57.84, 68.41 39.07, 103.94 0.25 M42.66 76.84 C66.25 47.91, 88.48 23.9, 108.92 0.61 M42.66 76.84 C63.09 53.71, 84.07 29.75, 108.92 0.61 M47.65 77.2 C69.44 51.21, 91.13 26.03, 114.57 0.21 M47.65 77.2 C71.44 48.66, 94.61 21.91, 114.57 0.21 M53.29 76.8 C77.58 47.63, 105.65 17.19, 119.55 0.57 M53.29 76.8 C73.55 53.94, 93.58 30.16, 119.55 0.57 M58.28 77.16 C77.17 55.42, 96.09 33.65, 125.2 0.18 M58.28 77.16 C71.29 59.77, 86.25 43.72, 125.2 0.18 M63.92 76.77 C85.07 51.77, 108.36 25.88, 130.18 0.54 M63.92 76.77 C86.19 51.61, 108.44 27.24, 130.18 0.54 M68.91 77.13 C80.66 61.1, 96.11 47.3, 135.83 0.15 M68.91 77.13 C83.37 60.64, 96.28 45.68, 135.83 0.15 M74.55 76.73 C97.2 54.06, 117.52 26.13, 140.81 0.51 M74.55 76.73 C92.93 55.02, 112.22 31.05, 140.81 0.51 M79.54 77.09 C98.74 54.77, 117.09 32.17, 145.14 1.62 M79.54 77.09 C100.12 53.72, 121.26 28.58, 145.14 1.62 M84.53 77.45 C99.77 61, 116.68 43.56, 149.48 2.74 M84.53 77.45 C101.7 56.49, 121.6 36.3, 149.48 2.74 M90.17 77.06 C108.99 53.8, 133.18 31.28, 154.46 3.1 M90.17 77.06 C114.75 47.18, 141.37 19.19, 154.46 3.1 M95.16 77.42 C110.25 59.31, 124.3 41.75, 158.14 4.97 M95.16 77.42 C115.13 53.58, 136.04 31.58, 158.14 4.97 M100.8 77.02 C114.83 58.61, 135.05 37.62, 160.5 8.34 M100.8 77.02 C118.6 58.56, 133.6 39.28, 160.5 8.34 M105.79 77.38 C123.4 54.33, 143.72 33.66, 162.21 12.48 M105.79 77.38 C120.96 60.79, 136.47 43.86, 162.21 12.48 M111.43 76.99 C126.58 57.52, 145.41 37.46, 164.57 15.86 M111.43 76.99 C124.91 62.03, 137 46.29, 164.57 15.86 M116.42 77.35 C127.37 63.77, 136.59 53.74, 164.31 22.25 M116.42 77.35 C131.03 60.39, 146.16 42.39, 164.31 22.25 M122.06 76.95 C130.33 64.89, 141.02 55.92, 164.7 27.9 M122.06 76.95 C131.24 66.35, 139.79 55.59, 164.7 27.9 M127.05 77.31 C141.91 61.35, 152.58 45.87, 164.44 34.3 M127.05 77.31 C135.74 66.75, 144.26 56.37, 164.44 34.3 M132.69 76.92 C142.59 63.93, 155.14 52.81, 164.18 40.69 M132.69 76.92 C142.87 66.35, 152.41 54.01, 164.18 40.69 M137.68 77.28 C148.06 67.74, 154.3 55.74, 164.57 46.34 M137.68 77.28 C143.47 71.09, 149.5 65.68, 164.57 46.34 M144.63 75.38 C151.07 68.8, 155.71 64.14, 164.31 52.73 M144.63 75.38 C150.34 68.91, 156.46 63, 164.31 52.73 M150.93 74.23 C155.56 70.62, 161.88 63.31, 164.71 58.38 M150.93 74.23 C156.65 69.4, 160.48 62.15, 164.71 58.38" stroke="#ffffff" stroke-width="0.5" fill="none"></path><path d="M18.73 0 M18.73 0 C65.49 1.26, 113.47 1.21, 143.79 0 M18.73 0 C62.93 -0.8, 106.5 -1.77, 143.79 0 M143.79 0 C155.15 -1.06, 164.49 4.68, 162.52 18.73 M143.79 0 C155.09 -0.59, 161.61 8.31, 162.52 18.73 M162.52 18.73 C160.48 26.91, 161.83 34.91, 162.52 56.18 M162.52 18.73 C163.19 31.14, 162.06 43.46, 162.52 56.18 M162.52 56.18 C163.48 67.17, 154.41 74.7, 143.79 74.91 M162.52 56.18 C162.41 68.57, 156.95 75.49, 143.79 74.91 M143.79 74.91 C94.89 75.65, 43.64 75.5, 18.73 74.91 M143.79 74.91 C118.74 74.68, 94.11 75.07, 18.73 74.91 M18.73 74.91 C4.57 76.28, -1.55 66.78, 0 56.18 M18.73 74.91 C6.75 76.48, 1.32 66.51, 0 56.18 M0 56.18 C-1.63 47.31, 0.91 37.3, 0 18.73 M0 56.18 C1.08 46.62, -0.61 37.75, 0 18.73 M0 18.73 C0.03 6.86, 6.49 -0.14, 18.73 0 M0 18.73 C1.57 5.66, 4.33 1.5, 18.73 0" stroke="#1e1e1e" stroke-width="1" fill="none"></path></g><g transform="translate(439.5761089390385 128.27455339089167) rotate(0 27.5 12.5)"><text x="27.5" y="0" font-family="Virgil, Segoe UI Emoji" font-size="20px" fill="#1e1e1e" text-anchor="middle" style="white-space: pre;" direction="ltr" dominant-baseline="text-before-edge">REPO</text></g><g stroke-linecap="round" transform="translate(783.2204176218736 102.05004971688979) rotate(0 81.25797492249569 37.454847815837866)"><path d="M4.98 4.33 C4.98 4.33, 4.98 4.33, 4.98 4.33 M4.98 4.33 C4.98 4.33, 4.98 4.33, 4.98 4.33 M0.79 15.26 C4.38 11.19, 10.09 6.1, 11.94 2.43 M0.79 15.26 C4.2 10.94, 8.16 6.52, 11.94 2.43 M1.18 20.9 C6.62 15.37, 12.43 8.08, 18.9 0.53 M1.18 20.9 C6.33 14.97, 11.68 9.69, 18.9 0.53 M0.92 27.3 C8.11 18.71, 15.19 10.25, 24.54 0.13 M0.92 27.3 C6.84 19.93, 13.77 14.19, 24.54 0.13 M1.31 32.94 C9.13 22.59, 18.43 13.63, 29.53 0.49 M1.31 32.94 C8.78 25.71, 14.86 19.03, 29.53 0.49 M1.05 39.34 C10.34 30.12, 21.16 17.85, 35.17 0.1 M1.05 39.34 C14.44 24.92, 27.16 10.06, 35.17 0.1 M0.79 45.74 C15.2 27.63, 31.2 9.04, 40.16 0.46 M0.79 45.74 C8.91 36, 17.43 25.91, 40.16 0.46 M1.19 51.38 C18.58 30.79, 35.48 9.56, 45.8 0.06 M1.19 51.38 C10.64 39.44, 20.47 29.26, 45.8 0.06 M0.93 57.78 C16.99 38.8, 30.46 21.24, 50.79 0.42 M0.93 57.78 C11.21 46.03, 22.57 33.71, 50.79 0.42 M1.98 62.67 C15.7 45.31, 28.55 29.36, 56.43 0.03 M1.98 62.67 C16.56 46.74, 29.34 29.98, 56.43 0.03 M3.03 67.56 C25.03 42.12, 46.3 18.81, 61.42 0.39 M3.03 67.56 C19.49 46.74, 37.59 26.94, 61.42 0.39 M5.39 70.94 C32.15 43.54, 54.48 15.77, 67.06 -0.01 M5.39 70.94 C27.74 44.75, 49.39 20.2, 67.06 -0.01 M8.41 73.56 C27.84 52.73, 43 31.59, 72.05 0.35 M8.41 73.56 C33.35 43.55, 57.97 15.89, 72.05 0.35 M12.74 74.67 C38.21 45.31, 61.37 18.84, 77.69 -0.04 M12.74 74.67 C38.69 45.69, 62.87 17.77, 77.69 -0.04 M17.73 75.03 C36.48 53.62, 54.94 29.68, 82.68 0.32 M17.73 75.03 C34.13 55.94, 50.95 36.32, 82.68 0.32 M21.4 76.9 C40.32 57.16, 55.92 36.46, 87.66 0.68 M21.4 76.9 C37.97 58.95, 54.02 41.32, 87.66 0.68 M26.39 77.26 C48.04 50.31, 72.38 21.59, 93.31 0.28 M26.39 77.26 C44.79 55.35, 64.12 33.02, 93.31 0.28 M32.03 76.87 C58.68 47.04, 79.94 20.1, 98.29 0.64 M32.03 76.87 C55.88 47.48, 81.22 21.18, 98.29 0.64 M37.02 77.23 C60.69 49.33, 84.57 24.55, 103.94 0.25 M37.02 77.23 C60.26 51.7, 84.44 24.94, 103.94 0.25 M42.66 76.84 C67.59 50.46, 89.83 22.97, 108.92 0.61 M42.66 76.84 C59.73 58.18, 76.66 38.17, 108.92 0.61 M47.65 77.2 C67.75 57.32, 86.13 35.74, 114.57 0.21 M47.65 77.2 C70.38 52.78, 91.98 26.69, 114.57 0.21 M53.29 76.8 C67.51 58.04, 84.93 40.48, 119.55 0.57 M53.29 76.8 C75.25 49.82, 98.82 23.82, 119.55 0.57 M58.28 77.16 C77.43 54.15, 96.07 35.33, 125.2 0.18 M58.28 77.16 C72.78 60.83, 88.13 42.78, 125.2 0.18 M63.92 76.77 C79.57 60.12, 94.68 41.05, 130.18 0.54 M63.92 76.77 C87.12 49.95, 108.83 26.16, 130.18 0.54 M68.91 77.13 C86.09 57.55, 99.66 41.56, 135.83 0.15 M68.91 77.13 C95.15 48.04, 120.55 17.57, 135.83 0.15 M74.55 76.73 C95.38 50.97, 120.45 25.29, 140.81 0.51 M74.55 76.73 C90.21 57.39, 108.58 38.48, 140.81 0.51 M79.54 77.09 C99.08 55.79, 118.23 33.32, 145.14 1.62 M79.54 77.09 C98.18 53.49, 118.63 30.6, 145.14 1.62 M84.53 77.45 C104.62 53.59, 124.21 30.83, 149.48 2.74 M84.53 77.45 C98.52 61.84, 111.54 46.06, 149.48 2.74 M90.17 77.06 C105.5 62.63, 118.52 45.55, 154.46 3.1 M90.17 77.06 C107.37 57.7, 122.45 40.86, 154.46 3.1 M95.16 77.42 C113.77 56.75, 130.57 34.84, 158.14 4.97 M95.16 77.42 C109.47 61.99, 123.07 47.13, 158.14 4.97 M100.8 77.02 C111.61 61.62, 123.77 47, 160.5 8.34 M100.8 77.02 C123.97 50.31, 147.88 21.81, 160.5 8.34 M105.79 77.38 C117.9 63.77, 131.14 49.48, 162.21 12.48 M105.79 77.38 C126.8 53.54, 147.16 30.53, 162.21 12.48 M111.43 76.99 C124.22 58.99, 140.26 44.83, 164.57 15.86 M111.43 76.99 C128.22 57.16, 145.84 38.43, 164.57 15.86 M116.42 77.35 C133.97 58.33, 150.06 40.74, 164.31 22.25 M116.42 77.35 C129.2 60.56, 144.18 45.63, 164.31 22.25 M122.06 76.95 C133.93 61.73, 143.98 50.08, 164.7 27.9 M122.06 76.95 C133.59 63.82, 146.34 49.12, 164.7 27.9 M127.05 77.31 C140.35 60.12, 155.43 45.86, 164.44 34.3 M127.05 77.31 C137.09 66.38, 147.16 54.52, 164.44 34.3 M132.69 76.92 C141.5 67.78, 150.19 57.85, 164.18 40.69 M132.69 76.92 C143.39 64.16, 154.58 51.43, 164.18 40.69 M137.68 77.28 C146.6 64.41, 157.77 54.5, 164.57 46.34 M137.68 77.28 C147.84 66.26, 156.58 55.28, 164.57 46.34 M144.63 75.38 C153.01 67.25, 159.32 59.66, 164.31 52.73 M144.63 75.38 C151.47 68.59, 157.14 60.2, 164.31 52.73 M150.93 74.23 C154.62 70.52, 159.42 65.68, 164.71 58.38 M150.93 74.23 C155.39 69.05, 161.56 62.34, 164.71 58.38" stroke="#ffffff" stroke-width="0.5" fill="none"></path><path d="M18.73 0 M18.73 0 C51.6 1.5, 82.38 1.99, 143.79 0 M18.73 0 C56.24 0.08, 94.83 1.62, 143.79 0 M143.79 0 C154.71 -1.03, 162 5.45, 162.52 18.73 M143.79 0 C158.34 -1.49, 161.49 4.21, 162.52 18.73 M162.52 18.73 C160.95 27.09, 161.58 35.02, 162.52 56.18 M162.52 18.73 C162.43 33.53, 161.77 46.44, 162.52 56.18 M162.52 56.18 C162.31 68.57, 156.19 75.5, 143.79 74.91 M162.52 56.18 C163.1 70.81, 155.75 75.9, 143.79 74.91 M143.79 74.91 C104.47 71.83, 65.27 74.18, 18.73 74.91 M143.79 74.91 C104.99 74.83, 67.01 74.89, 18.73 74.91 M18.73 74.91 C4.36 75.35, 1.36 69.82, 0 56.18 M18.73 74.91 C4.08 74.33, 0.05 66.95, 0 56.18 M0 56.18 C1.43 46.9, -1.15 39.82, 0 18.73 M0 56.18 C0.12 41.53, 0.44 26.97, 0 18.73 M0 18.73 C-0.14 7.61, 5.73 -1.66, 18.73 0 M0 18.73 C1.5 7.24, 4.04 1.7, 18.73 0" stroke="#1e1e1e" stroke-width="1" fill="none"></path></g><g transform="translate(837.9783925443692 127.00489753272765) rotate(0 26.5 12.5)"><text x="26.5" y="0" font-family="Virgil, Segoe UI Emoji" font-size="20px" fill="#1e1e1e" text-anchor="middle" style="white-space: pre;" direction="ltr" dominant-baseline="text-before-edge">ALMA</text></g><g stroke-linecap="round" transform="translate(1136.1847461914642 291.22877258332505) rotate(0 81.25797492249569 37.454847815837866)"><path d="M4.98 4.33 C4.98 4.33, 4.98 4.33, 4.98 4.33 M4.98 4.33 C4.98 4.33, 4.98 4.33, 4.98 4.33 M0.79 15.26 C4.95 12.23, 6.33 7.13, 11.94 2.43 M0.79 15.26 C5.24 10.09, 9.32 5.89, 11.94 2.43 M1.18 20.9 C4.54 14.61, 10.26 10.07, 18.9 0.53 M1.18 20.9 C9.22 13.18, 15.18 5.28, 18.9 0.53 M0.92 27.3 C9.71 16.32, 17.58 7.99, 24.54 0.13 M0.92 27.3 C8.33 19.65, 13.52 11.82, 24.54 0.13 M1.31 32.94 C12.03 18.67, 22.04 8.48, 29.53 0.49 M1.31 32.94 C12.47 20.09, 22.46 8.69, 29.53 0.49 M1.05 39.34 C16.06 23.41, 27.35 10.2, 35.17 0.1 M1.05 39.34 C10.92 28.07, 20.64 15.54, 35.17 0.1 M0.79 45.74 C10.95 34.54, 21.1 22.33, 40.16 0.46 M0.79 45.74 C11.88 33.94, 21.33 21.69, 40.16 0.46 M1.19 51.38 C13.5 39.4, 24.32 28.64, 45.8 0.06 M1.19 51.38 C15.93 33.23, 32.14 14.22, 45.8 0.06 M0.93 57.78 C14.18 41.03, 29.15 23.61, 50.79 0.42 M0.93 57.78 C20.49 35.66, 37.47 14.89, 50.79 0.42 M1.98 62.67 C20.9 37.56, 42.97 17.87, 56.43 0.03 M1.98 62.67 C20.91 40.3, 40.1 19.58, 56.43 0.03 M3.03 67.56 C23.24 45.87, 45.52 22.36, 61.42 0.39 M3.03 67.56 C24.61 44.19, 44.58 20.27, 61.42 0.39 M5.39 70.94 C22.17 54.03, 38.07 34.7, 67.06 -0.01 M5.39 70.94 C23.3 52.14, 40.4 32.26, 67.06 -0.01 M8.41 73.56 C30.1 51.18, 50.06 25.72, 72.05 0.35 M8.41 73.56 C22.81 55.55, 38.8 38.4, 72.05 0.35 M12.74 74.67 C33.35 48.09, 57.12 22.98, 77.69 -0.04 M12.74 74.67 C31.01 53.18, 49.1 33.68, 77.69 -0.04 M17.73 75.03 C31.05 59.61, 46.8 40.74, 82.68 0.32 M17.73 75.03 C32.8 58.4, 47.68 40.44, 82.68 0.32 M21.4 76.9 C45.59 49.13, 66.85 27.05, 87.66 0.68 M21.4 76.9 C37.45 58.45, 51.71 41.85, 87.66 0.68 M26.39 77.26 C52.72 48.47, 77.97 16.92, 93.31 0.28 M26.39 77.26 C47.9 51.32, 71.9 25.29, 93.31 0.28 M32.03 76.87 C46.73 57.51, 66.35 39.39, 98.29 0.64 M32.03 76.87 C51.46 55.18, 70.83 32.68, 98.29 0.64 M37.02 77.23 C55.35 52.5, 76.91 28.97, 103.94 0.25 M37.02 77.23 C57.52 52.86, 77.84 29.36, 103.94 0.25 M42.66 76.84 C57.47 61.13, 70.45 44.58, 108.92 0.61 M42.66 76.84 C57.52 60.95, 71.32 44.02, 108.92 0.61 M47.65 77.2 C66.48 56.49, 81.31 40.45, 114.57 0.21 M47.65 77.2 C67.45 55.01, 86.35 31.98, 114.57 0.21 M53.29 76.8 C68.89 60.34, 83.49 45.11, 119.55 0.57 M53.29 76.8 C66.13 60.04, 79.79 44.02, 119.55 0.57 M58.28 77.16 C83.73 47.58, 110.69 14.59, 125.2 0.18 M58.28 77.16 C72.53 61.44, 87.04 45.21, 125.2 0.18 M63.92 76.77 C89.38 48.83, 113.3 22.11, 130.18 0.54 M63.92 76.77 C81.12 55.07, 99.86 35.67, 130.18 0.54 M68.91 77.13 C90.23 51.55, 112.87 28.57, 135.83 0.15 M68.91 77.13 C93.05 50.43, 116.08 24.4, 135.83 0.15 M74.55 76.73 C91.79 52.98, 113.28 32.84, 140.81 0.51 M74.55 76.73 C93.02 54.96, 110.17 35.18, 140.81 0.51 M79.54 77.09 C96.94 57.14, 116.85 34.17, 145.14 1.62 M79.54 77.09 C104.06 48.43, 129.27 20.97, 145.14 1.62 M84.53 77.45 C101.94 58.56, 119.42 37.91, 149.48 2.74 M84.53 77.45 C101.64 58.23, 118.52 38.83, 149.48 2.74 M90.17 77.06 C112.04 50.98, 134.89 24.99, 154.46 3.1 M90.17 77.06 C112.68 49.92, 136.61 23.86, 154.46 3.1 M95.16 77.42 C118.62 51.66, 139.25 26.1, 158.14 4.97 M95.16 77.42 C117.97 52.02, 139.66 26.9, 158.14 4.97 M100.8 77.02 C120.8 56.05, 138.47 31.96, 160.5 8.34 M100.8 77.02 C118.02 56.47, 136.29 35.79, 160.5 8.34 M105.79 77.38 C125.37 54.48, 148.71 28.41, 162.21 12.48 M105.79 77.38 C120.22 61.77, 134.07 45.67, 162.21 12.48 M111.43 76.99 C126 57.41, 142.83 41.77, 164.57 15.86 M111.43 76.99 C123.13 64.46, 134.67 49.56, 164.57 15.86 M116.42 77.35 C126.55 64.39, 137.83 53.36, 164.31 22.25 M116.42 77.35 C131.96 58.5, 149.06 39.08, 164.31 22.25 M122.06 76.95 C130.84 67.42, 140.25 58.56, 164.7 27.9 M122.06 76.95 C133.77 62.41, 145.52 48.7, 164.7 27.9 M127.05 77.31 C137.66 65.12, 150.07 48.86, 164.44 34.3 M127.05 77.31 C141.38 62.5, 155.51 45.03, 164.44 34.3 M132.69 76.92 C139.71 68.62, 150.9 58.95, 164.18 40.69 M132.69 76.92 C141.51 67.65, 147.56 59.08, 164.18 40.69 M137.68 77.28 C145.56 69.28, 153.3 56.91, 164.57 46.34 M137.68 77.28 C148.11 65.48, 157.97 53.96, 164.57 46.34 M144.63 75.38 C148.63 70.07, 154.71 61.41, 164.31 52.73 M144.63 75.38 C148.43 69.22, 153.86 64.12, 164.31 52.73 M150.93 74.23 C156.11 71.9, 159.19 65.94, 164.71 58.38 M150.93 74.23 C156.36 69.73, 161.05 63.88, 164.71 58.38" stroke="#ffffff" stroke-width="0.5" fill="none"></path><path d="M18.73 0 M18.73 0 C63.13 0.29, 107.87 -0.46, 143.79 0 M18.73 0 C65.65 -1.54, 112.22 -0.42, 143.79 0 M143.79 0 C158.17 1.83, 161.86 6.46, 162.52 18.73 M143.79 0 C158.57 1.86, 164.11 7.83, 162.52 18.73 M162.52 18.73 C162.99 33.91, 160.87 48.53, 162.52 56.18 M162.52 18.73 C163.03 29.96, 161.54 39.92, 162.52 56.18 M162.52 56.18 C162.02 67.96, 155.33 73.07, 143.79 74.91 M162.52 56.18 C162.88 67.27, 158.27 74.34, 143.79 74.91 M143.79 74.91 C101.57 76.98, 57.23 74.12, 18.73 74.91 M143.79 74.91 C108.13 74.35, 71.83 73.38, 18.73 74.91 M18.73 74.91 C6.39 76.49, -0.8 67.83, 0 56.18 M18.73 74.91 C4.35 76.43, -1.68 67.33, 0 56.18 M0 56.18 C-0.49 42.89, 0.88 30.55, 0 18.73 M0 56.18 C0.08 48.49, -0.7 40.51, 0 18.73 M0 18.73 C-1.18 5.11, 7.71 -0.66, 18.73 0 M0 18.73 C1.95 7.52, 6.78 -1.35, 18.73 0" stroke="#1e1e1e" stroke-width="1" fill="none"></path></g><g transform="translate(1181.94272111396 316.1836203991629) rotate(0 35.5 12.5)"><text x="35.5" y="0" font-family="Virgil, Segoe UI Emoji" font-size="20px" fill="#1e1e1e" text-anchor="middle" style="white-space: pre;" direction="ltr" dominant-baseline="text-before-edge">Verbund</text></g><g stroke-linecap="round" transform="translate(785.7597293382014 460.0930017191367) rotate(0 81.25797492249569 37.454847815837866)"><path d="M4.98 4.33 C4.98 4.33, 4.98 4.33, 4.98 4.33 M4.98 4.33 C4.98 4.33, 4.98 4.33, 4.98 4.33 M0.79 15.26 C5.51 8.74, 9.88 7.04, 11.94 2.43 M0.79 15.26 C3.6 10.68, 8.14 8.05, 11.94 2.43 M1.18 20.9 C5.39 14.54, 12.51 9.41, 18.9 0.53 M1.18 20.9 C6.41 14.29, 12.99 7.86, 18.9 0.53 M0.92 27.3 C8.58 18.07, 13.69 10.71, 24.54 0.13 M0.92 27.3 C10.24 16.99, 19.06 6.11, 24.54 0.13 M1.31 32.94 C11.28 21.59, 20.14 10.01, 29.53 0.49 M1.31 32.94 C11.4 22.31, 22.03 10.79, 29.53 0.49 M1.05 39.34 C15.47 22.48, 28.04 8.42, 35.17 0.1 M1.05 39.34 C11.49 27.25, 21.56 15.67, 35.17 0.1 M0.79 45.74 C13.84 27.22, 29.9 14.3, 40.16 0.46 M0.79 45.74 C10.65 33.67, 23.39 20.86, 40.16 0.46 M1.19 51.38 C15.94 34.54, 33.76 15.17, 45.8 0.06 M1.19 51.38 C14.52 38.14, 26.77 23.4, 45.8 0.06 M0.93 57.78 C11.67 45.57, 21.31 32.65, 50.79 0.42 M0.93 57.78 C20.32 36.76, 38.4 14.02, 50.79 0.42 M1.98 62.67 C20.62 43.81, 37.59 23.81, 56.43 0.03 M1.98 62.67 C15.69 47.57, 27.75 32.87, 56.43 0.03 M3.03 67.56 C19.61 48.26, 37.41 29.43, 61.42 0.39 M3.03 67.56 C20.58 46.94, 39.12 26.08, 61.42 0.39 M5.39 70.94 C23.65 48.61, 46.09 23.48, 67.06 -0.01 M5.39 70.94 C18.78 56.52, 30.47 40.77, 67.06 -0.01 M8.41 73.56 C29.78 50.28, 48.7 27.04, 72.05 0.35 M8.41 73.56 C25.89 51.81, 46.44 28.89, 72.05 0.35 M12.74 74.67 C30.61 51.43, 52.06 29.87, 77.69 -0.04 M12.74 74.67 C27.48 57.96, 40.83 41.82, 77.69 -0.04 M17.73 75.03 C43.54 47.45, 69.41 15.41, 82.68 0.32 M17.73 75.03 C41.9 48.61, 66.45 20.9, 82.68 0.32 M21.4 76.9 C44.44 51.74, 66.25 25.68, 87.66 0.68 M21.4 76.9 C43.82 50.52, 66.99 23.69, 87.66 0.68 M26.39 77.26 C46.73 52.54, 68.3 25.82, 93.31 0.28 M26.39 77.26 C44.97 55.33, 63.46 32.42, 93.31 0.28 M32.03 76.87 C54.64 52.79, 74.69 26.15, 98.29 0.64 M32.03 76.87 C48.51 56.12, 67.6 35.83, 98.29 0.64 M37.02 77.23 C57.99 52.23, 77.63 29.25, 103.94 0.25 M37.02 77.23 C52.7 59.54, 68.93 39.56, 103.94 0.25 M42.66 76.84 C63.42 50.32, 85.11 28.55, 108.92 0.61 M42.66 76.84 C63.06 54.09, 81.62 30.81, 108.92 0.61 M47.65 77.2 C63.03 61.02, 77.65 42.31, 114.57 0.21 M47.65 77.2 C69.76 51.35, 92.88 23.92, 114.57 0.21 M53.29 76.8 C70.05 56.13, 90.86 35.24, 119.55 0.57 M53.29 76.8 C77.66 49.41, 102.89 20.95, 119.55 0.57 M58.28 77.16 C73.37 59.73, 89.86 42.55, 125.2 0.18 M58.28 77.16 C79.67 52.3, 103.01 25.6, 125.2 0.18 M63.92 76.77 C76.49 58.36, 92.8 42.59, 130.18 0.54 M63.92 76.77 C82.71 56.69, 99.73 37.11, 130.18 0.54 M68.91 77.13 C85.68 57.32, 105.15 36.5, 135.83 0.15 M68.91 77.13 C89.5 54.5, 108.88 31.67, 135.83 0.15 M74.55 76.73 C92.47 57.12, 109.79 36.23, 140.81 0.51 M74.55 76.73 C98.96 48.54, 123.54 21.7, 140.81 0.51 M79.54 77.09 C101.19 51.7, 125.42 25.28, 145.14 1.62 M79.54 77.09 C98.64 53.95, 118.27 30.94, 145.14 1.62 M84.53 77.45 C102.88 56.51, 121.78 34.43, 149.48 2.74 M84.53 77.45 C104.54 54.17, 123.25 30.86, 149.48 2.74 M90.17 77.06 C115.24 49.3, 139.68 22.36, 154.46 3.1 M90.17 77.06 C116.5 48.66, 141.12 18.79, 154.46 3.1 M95.16 77.42 C119.87 50.74, 143.74 23.29, 158.14 4.97 M95.16 77.42 C114.91 54.44, 136.41 31.24, 158.14 4.97 M100.8 77.02 C117.61 58.9, 129.75 41.36, 160.5 8.34 M100.8 77.02 C112.63 63.3, 125.28 49.2, 160.5 8.34 M105.79 77.38 C127.19 53.7, 147.44 26.05, 162.21 12.48 M105.79 77.38 C122.45 58.87, 139.42 39.59, 162.21 12.48 M111.43 76.99 C127.82 56, 145.84 35.19, 164.57 15.86 M111.43 76.99 C128.91 57.68, 144.41 38.95, 164.57 15.86 M116.42 77.35 C128.96 66.13, 136.37 52.22, 164.31 22.25 M116.42 77.35 C132.01 61.55, 146.62 43.9, 164.31 22.25 M122.06 76.95 C132.25 62.47, 143.83 51.52, 164.7 27.9 M122.06 76.95 C136.79 60.5, 149.38 45.18, 164.7 27.9 M127.05 77.31 C138.79 63.82, 151.21 46.91, 164.44 34.3 M127.05 77.31 C138.85 64.1, 149.05 50.53, 164.44 34.3 M132.69 76.92 C139.59 67.21, 148.61 56.46, 164.18 40.69 M132.69 76.92 C145.24 63.88, 155.95 50.19, 164.18 40.69 M137.68 77.28 C146.01 70.95, 151.61 62.98, 164.57 46.34 M137.68 77.28 C144.04 70.53, 149.88 63.69, 164.57 46.34 M144.63 75.38 C149.18 69.42, 157.05 64.29, 164.31 52.73 M144.63 75.38 C153.41 67.3, 160.81 58.31, 164.31 52.73 M150.93 74.23 C156.57 69.41, 159.64 63.94, 164.71 58.38 M150.93 74.23 C155.52 70.59, 157.89 65.63, 164.71 58.38" stroke="#ffffff" stroke-width="0.5" fill="none"></path><path d="M18.73 0 M18.73 0 C51.3 0.91, 86.34 2.33, 143.79 0 M18.73 0 C53.55 0.49, 88.32 0.05, 143.79 0 M143.79 0 C154.97 -0.32, 161.76 4.82, 162.52 18.73 M143.79 0 C155.92 0.77, 160.34 4.76, 162.52 18.73 M162.52 18.73 C161.97 28.6, 164.13 40.31, 162.52 56.18 M162.52 18.73 C163.18 27.38, 162.11 37.12, 162.52 56.18 M162.52 56.18 C161.44 66.89, 158.12 74.45, 143.79 74.91 M162.52 56.18 C163.5 69.16, 155.46 75.23, 143.79 74.91 M143.79 74.91 C112.97 77.52, 84.58 76.29, 18.73 74.91 M143.79 74.91 C113.79 74.63, 82.67 74.45, 18.73 74.91 M18.73 74.91 C5.43 73.99, 0.94 67.1, 0 56.18 M18.73 74.91 C5.05 76.86, 1.69 69.02, 0 56.18 M0 56.18 C-0.24 46.81, -1.09 35.53, 0 18.73 M0 56.18 C-0.59 41.31, -1.01 27.13, 0 18.73 M0 18.73 C0.99 6.98, 6.34 -1.69, 18.73 0 M0 18.73 C1.01 8.42, 8.5 -1.82, 18.73 0" stroke="#1e1e1e" stroke-width="1" fill="none"></path></g><g transform="translate(840.517704260697 485.04784953497455) rotate(0 26.5 12.5)"><text x="26.5" y="0" font-family="Virgil, Segoe UI Emoji" font-size="20px" fill="#1e1e1e" text-anchor="middle" style="white-space: pre;" direction="ltr" dominant-baseline="text-before-edge">ALMA</text></g><g stroke-linecap="round" transform="translate(487.39060266966226 568.0137496630762) rotate(0 81.25797492249569 37.454847815837866)"><path d="M4.98 4.33 C4.98 4.33, 4.98 4.33, 4.98 4.33 M4.98 4.33 C4.98 4.33, 4.98 4.33, 4.98 4.33 M0.79 15.26 C3.18 13.51, 5.03 8.73, 11.94 2.43 M0.79 15.26 C3.33 12.34, 6.19 8.9, 11.94 2.43 M1.18 20.9 C7.09 13.06, 14.25 6.92, 18.9 0.53 M1.18 20.9 C6.27 14.9, 11.34 9.17, 18.9 0.53 M0.92 27.3 C8.17 21, 12.29 15.37, 24.54 0.13 M0.92 27.3 C8.61 19.31, 16.47 10.77, 24.54 0.13 M1.31 32.94 C10.19 22.62, 18.96 14.93, 29.53 0.49 M1.31 32.94 C12.89 20.46, 21.97 8.15, 29.53 0.49 M1.05 39.34 C8.53 30.64, 14.8 22.02, 35.17 0.1 M1.05 39.34 C12.53 26.36, 23.46 14.2, 35.17 0.1 M0.79 45.74 C8.26 38.23, 15.45 25.5, 40.16 0.46 M0.79 45.74 C14.74 30.17, 28.38 13.45, 40.16 0.46 M1.19 51.38 C18.04 29.43, 35.84 12.02, 45.8 0.06 M1.19 51.38 C17.89 30.62, 37.11 10.34, 45.8 0.06 M0.93 57.78 C17.58 40, 32.73 24.36, 50.79 0.42 M0.93 57.78 C20.96 34.3, 41.34 12.94, 50.79 0.42 M1.98 62.67 C19.54 39.52, 40.29 19.76, 56.43 0.03 M1.98 62.67 C15.49 48.1, 28.43 31.49, 56.43 0.03 M3.03 67.56 C20.55 48.54, 36.04 26.74, 61.42 0.39 M3.03 67.56 C19.15 48.87, 35.34 29.82, 61.42 0.39 M5.39 70.94 C23.9 47.83, 44.82 24.9, 67.06 -0.01 M5.39 70.94 C25.34 49.04, 44.49 27.78, 67.06 -0.01 M8.41 73.56 C29.04 50.9, 51.52 24.46, 72.05 0.35 M8.41 73.56 C30.45 48.3, 53.91 21.24, 72.05 0.35 M12.74 74.67 C31.75 50.57, 53.92 27.7, 77.69 -0.04 M12.74 74.67 C33.38 52.09, 51.06 30.42, 77.69 -0.04 M17.73 75.03 C43.92 45.55, 65.58 18, 82.68 0.32 M17.73 75.03 C38.89 49.79, 60.24 26.04, 82.68 0.32 M21.4 76.9 C44.18 52.62, 63.46 25.59, 87.66 0.68 M21.4 76.9 C42.27 54.79, 62.26 30.64, 87.66 0.68 M26.39 77.26 C46.64 55.92, 68.53 31.27, 93.31 0.28 M26.39 77.26 C48.48 53.76, 70.83 28.91, 93.31 0.28 M32.03 76.87 C54.47 51.55, 80.5 22.24, 98.29 0.64 M32.03 76.87 C51.63 52.88, 71.95 30.32, 98.29 0.64 M37.02 77.23 C49.46 61.76, 65.57 45.82, 103.94 0.25 M37.02 77.23 C63.15 48.95, 88.08 17.87, 103.94 0.25 M42.66 76.84 C57.44 58.94, 70.79 43.7, 108.92 0.61 M42.66 76.84 C59.76 57.28, 77.68 37.66, 108.92 0.61 M47.65 77.2 C75.53 48.23, 103.07 16.1, 114.57 0.21 M47.65 77.2 C73.61 47.83, 99.5 15.89, 114.57 0.21 M53.29 76.8 C74.11 51.71, 93.16 29.11, 119.55 0.57 M53.29 76.8 C78.06 46.97, 104.59 17.78, 119.55 0.57 M58.28 77.16 C77.76 55.5, 95.02 30.81, 125.2 0.18 M58.28 77.16 C81.08 50.72, 105.42 22.24, 125.2 0.18 M63.92 76.77 C78.35 58.45, 92.5 43.49, 130.18 0.54 M63.92 76.77 C82.87 53.67, 101.94 31.57, 130.18 0.54 M68.91 77.13 C88.73 52.49, 108.92 31.55, 135.83 0.15 M68.91 77.13 C87.53 55.95, 107.21 33.71, 135.83 0.15 M74.55 76.73 C100.39 48.96, 122.65 21.07, 140.81 0.51 M74.55 76.73 C91.15 56.46, 106.93 37.2, 140.81 0.51 M79.54 77.09 C102.32 52.92, 126.58 24.86, 145.14 1.62 M79.54 77.09 C102.74 50.42, 126.55 23.91, 145.14 1.62 M84.53 77.45 C107.14 52.62, 130.89 26.43, 149.48 2.74 M84.53 77.45 C107.18 53.98, 127.33 29.42, 149.48 2.74 M90.17 77.06 C112.02 52.49, 129.26 31.26, 154.46 3.1 M90.17 77.06 C111.92 52.69, 133.04 29.26, 154.46 3.1 M95.16 77.42 C115.93 52.2, 134.98 27.95, 158.14 4.97 M95.16 77.42 C109.49 59.75, 125.17 43.01, 158.14 4.97 M100.8 77.02 C113.29 60.75, 128.69 43.77, 160.5 8.34 M100.8 77.02 C121.69 54.02, 140.34 31.18, 160.5 8.34 M105.79 77.38 C125.7 55.23, 145.46 33.32, 162.21 12.48 M105.79 77.38 C123.96 56.55, 141.98 34.41, 162.21 12.48 M111.43 76.99 C128.48 58.64, 143.24 41.18, 164.57 15.86 M111.43 76.99 C126.72 57.79, 143.26 41.53, 164.57 15.86 M116.42 77.35 C134.1 56.28, 149.55 39.5, 164.31 22.25 M116.42 77.35 C132.08 58.56, 150.01 39.13, 164.31 22.25 M122.06 76.95 C132.15 66.3, 140.87 56.51, 164.7 27.9 M122.06 76.95 C134.61 62.25, 146.62 48.98, 164.7 27.9 M127.05 77.31 C141.7 61.57, 154.37 45.81, 164.44 34.3 M127.05 77.31 C137.32 65.95, 146.9 53.3, 164.44 34.3 M132.69 76.92 C143.7 66.15, 153.41 57.24, 164.18 40.69 M132.69 76.92 C143.69 63, 156.44 51.09, 164.18 40.69 M137.68 77.28 C146.21 65.72, 157.87 54.46, 164.57 46.34 M137.68 77.28 C146.81 67.36, 156.5 55.43, 164.57 46.34 M144.63 75.38 C152.78 67.09, 157.64 62.3, 164.31 52.73 M144.63 75.38 C152.74 66.66, 158.98 58.22, 164.31 52.73 M150.93 74.23 C155.54 67.69, 159.88 64.22, 164.71 58.38 M150.93 74.23 C155.96 67.92, 160.89 61.42, 164.71 58.38" stroke="#ffffff" stroke-width="0.5" fill="none"></path><path d="M18.73 0 M18.73 0 C57.73 -0.14, 97.93 -0.26, 143.79 0 M18.73 0 C63.33 -0.39, 108.87 -0.94, 143.79 0 M143.79 0 C155.97 0.67, 160.62 4.96, 162.52 18.73 M143.79 0 C156.45 1.82, 161.59 5.27, 162.52 18.73 M162.52 18.73 C161.6 27.43, 161.09 36.16, 162.52 56.18 M162.52 18.73 C161.79 27.57, 163.25 37.95, 162.52 56.18 M162.52 56.18 C163.37 69.1, 155.57 75.19, 143.79 74.91 M162.52 56.18 C161.16 67.37, 157.96 74.15, 143.79 74.91 M143.79 74.91 C94.5 76.51, 46.83 75.56, 18.73 74.91 M143.79 74.91 C103.65 74.44, 64.8 74.12, 18.73 74.91 M18.73 74.91 C5.21 76.61, 1.47 68.97, 0 56.18 M18.73 74.91 C5.85 75.39, -0.25 68.48, 0 56.18 M0 56.18 C1.99 44.22, -1.11 28.55, 0 18.73 M0 56.18 C0.76 46.26, 0.32 34.75, 0 18.73 M0 18.73 C0.88 8.13, 8.2 -1.58, 18.73 0 M0 18.73 C-0.42 8.37, 8.48 0.12, 18.73 0" stroke="#1e1e1e" stroke-width="1" fill="none"></path></g><g transform="translate(541.148577592158 592.968597478914) rotate(0 27.499999999999943 12.5)"><text x="27.5" y="0" font-family="Virgil, Segoe UI Emoji" font-size="20px" fill="#1e1e1e" text-anchor="middle" style="white-space: pre;" direction="ltr" dominant-baseline="text-before-edge">REPO</text></g><g stroke-linecap="round" transform="translate(368.0429520022469 794.0124924162674) rotate(0 81.25797492249569 37.454847815837866)"><path d="M4.98 4.33 C4.98 4.33, 4.98 4.33, 4.98 4.33 M4.98 4.33 C4.98 4.33, 4.98 4.33, 4.98 4.33 M0.79 15.26 C3.49 11.9, 10.12 6.42, 11.94 2.43 M0.79 15.26 C4.17 11.48, 8.1 7.8, 11.94 2.43 M1.18 20.9 C5.15 17.18, 9.33 11.15, 18.9 0.53 M1.18 20.9 C5.98 14.09, 11.7 9.17, 18.9 0.53 M0.92 27.3 C8.08 19.31, 14.09 11.88, 24.54 0.13 M0.92 27.3 C8.61 18.03, 16.29 9.09, 24.54 0.13 M1.31 32.94 C9.4 27.15, 15.49 19.59, 29.53 0.49 M1.31 32.94 C10 22.27, 19.94 11.63, 29.53 0.49 M1.05 39.34 C10.9 26.58, 21.84 18.68, 35.17 0.1 M1.05 39.34 C7.9 30.47, 17.74 20.52, 35.17 0.1 M0.79 45.74 C17.63 29.75, 33.16 11.35, 40.16 0.46 M0.79 45.74 C14.83 30.94, 27.72 15.01, 40.16 0.46 M1.19 51.38 C12.91 40.73, 21.64 26.99, 45.8 0.06 M1.19 51.38 C14.1 35.94, 26.79 21.79, 45.8 0.06 M0.93 57.78 C15.46 42.04, 26.21 27.7, 50.79 0.42 M0.93 57.78 C11.91 45.57, 22.54 31.84, 50.79 0.42 M1.98 62.67 C15.1 46.35, 28.97 29.6, 56.43 0.03 M1.98 62.67 C23.42 38.88, 44.82 14.61, 56.43 0.03 M3.03 67.56 C24.68 43.33, 46.29 18.49, 61.42 0.39 M3.03 67.56 C18.78 50.51, 33.25 31.21, 61.42 0.39 M5.39 70.94 C24.83 47.32, 41.97 28.01, 67.06 -0.01 M5.39 70.94 C21.66 51.59, 38.07 33.26, 67.06 -0.01 M8.41 73.56 C31.13 49.93, 50.98 22.83, 72.05 0.35 M8.41 73.56 C28.2 50.56, 49.24 26.52, 72.05 0.35 M12.74 74.67 C31.86 50.71, 52.06 31.99, 77.69 -0.04 M12.74 74.67 C31.08 55, 46.99 35.89, 77.69 -0.04 M17.73 75.03 C34.87 58.36, 49.97 39.3, 82.68 0.32 M17.73 75.03 C32.83 57.59, 47.61 40.82, 82.68 0.32 M21.4 76.9 C44.2 50.07, 66.5 26.63, 87.66 0.68 M21.4 76.9 C47.41 46.85, 72.51 16.81, 87.66 0.68 M26.39 77.26 C51.75 47.54, 74.84 19.35, 93.31 0.28 M26.39 77.26 C52.11 47.17, 76.94 16.74, 93.31 0.28 M32.03 76.87 C55.44 51.56, 79.23 22.02, 98.29 0.64 M32.03 76.87 C46.84 58.61, 62.64 39.88, 98.29 0.64 M37.02 77.23 C57.4 55.83, 72.86 34.19, 103.94 0.25 M37.02 77.23 C63.18 46.55, 91.41 16.56, 103.94 0.25 M42.66 76.84 C60.2 54.41, 77.01 34.03, 108.92 0.61 M42.66 76.84 C60.52 56.68, 77.15 38.38, 108.92 0.61 M47.65 77.2 C75.16 47.77, 98.95 16.17, 114.57 0.21 M47.65 77.2 C74.69 47.85, 101.25 17.52, 114.57 0.21 M53.29 76.8 C68.09 62.08, 80.61 45.28, 119.55 0.57 M53.29 76.8 C72.09 55.72, 91.1 33.28, 119.55 0.57 M58.28 77.16 C82.03 52.25, 102.52 25.24, 125.2 0.18 M58.28 77.16 C80.79 50.92, 104.61 23.97, 125.2 0.18 M63.92 76.77 C80.24 57.62, 97.96 38.9, 130.18 0.54 M63.92 76.77 C80.6 58.79, 96.57 39.6, 130.18 0.54 M68.91 77.13 C83.64 60.03, 98 41.87, 135.83 0.15 M68.91 77.13 C92.37 50.29, 115.35 24.66, 135.83 0.15 M74.55 76.73 C95.75 52.58, 119.86 27.1, 140.81 0.51 M74.55 76.73 C89.93 60.1, 104.65 43.55, 140.81 0.51 M79.54 77.09 C105.76 46.25, 131.71 17.2, 145.14 1.62 M79.54 77.09 C99.29 54.37, 118.8 31.58, 145.14 1.62 M84.53 77.45 C107.55 48.76, 130.12 25.76, 149.48 2.74 M84.53 77.45 C109.73 48.96, 135.28 20.69, 149.48 2.74 M90.17 77.06 C108.59 56.82, 124.42 37.99, 154.46 3.1 M90.17 77.06 C106.99 57.93, 123.73 37.76, 154.46 3.1 M95.16 77.42 C110.36 61.7, 125.54 40.66, 158.14 4.97 M95.16 77.42 C112.07 56.53, 129.11 36.17, 158.14 4.97 M100.8 77.02 C117.62 58.22, 133.82 42.25, 160.5 8.34 M100.8 77.02 C119.4 55.72, 135.91 35.75, 160.5 8.34 M105.79 77.38 C122.98 59.92, 138.68 39.75, 162.21 12.48 M105.79 77.38 C123.51 56.46, 141.35 37.2, 162.21 12.48 M111.43 76.99 C128.02 56.06, 145.99 37.25, 164.57 15.86 M111.43 76.99 C122.8 63.12, 132.9 51.5, 164.57 15.86 M116.42 77.35 C128.58 66.28, 137.37 51.29, 164.31 22.25 M116.42 77.35 C129.6 60.86, 144.87 44.53, 164.31 22.25 M122.06 76.95 C134.91 59.67, 150.05 46.87, 164.7 27.9 M122.06 76.95 C131.17 66.3, 138.81 57.31, 164.7 27.9 M127.05 77.31 C138.7 61.75, 149.87 49.18, 164.44 34.3 M127.05 77.31 C138.98 63.64, 150.16 51.66, 164.44 34.3 M132.69 76.92 C142.92 65.85, 151.6 54.3, 164.18 40.69 M132.69 76.92 C140.87 68.09, 148.39 58.24, 164.18 40.69 M137.68 77.28 C146.69 67.4, 155.49 58.08, 164.57 46.34 M137.68 77.28 C148.32 66.06, 159.43 54.26, 164.57 46.34 M144.63 75.38 C151.48 70.51, 156.5 64.61, 164.31 52.73 M144.63 75.38 C151.26 67.62, 157.5 61.37, 164.31 52.73 M150.93 74.23 C156.06 68.38, 158.58 65.42, 164.71 58.38 M150.93 74.23 C154.81 69.55, 159.17 65.71, 164.71 58.38" stroke="#ffffff" stroke-width="0.5" fill="none"></path><path d="M18.73 0 M18.73 0 C63.43 1.04, 106.01 -1.82, 143.79 0 M18.73 0 C54.08 1.22, 88.79 0.25, 143.79 0 M143.79 0 C156.42 1.58, 161.71 5.4, 162.52 18.73 M143.79 0 C154.38 1.52, 160.84 4.9, 162.52 18.73 M162.52 18.73 C161.4 29.99, 162.77 42.2, 162.52 56.18 M162.52 18.73 C163.29 26.85, 162.51 34.68, 162.52 56.18 M162.52 56.18 C161.34 67.54, 157.74 74.25, 143.79 74.91 M162.52 56.18 C164.46 69.95, 156.81 73.56, 143.79 74.91 M143.79 74.91 C98.46 73.6, 52.42 74.32, 18.73 74.91 M143.79 74.91 C111.5 74.78, 80.98 74.08, 18.73 74.91 M18.73 74.91 C5.9 75.33, -0.22 68.51, 0 56.18 M18.73 74.91 C7.65 73.75, 0.62 70.74, 0 56.18 M0 56.18 C-0.26 40.59, 0.6 28.84, 0 18.73 M0 56.18 C0.42 44.51, 0.96 30.16, 0 18.73 M0 18.73 C-0.37 8.09, 8.19 0.1, 18.73 0 M0 18.73 C0.88 6.27, 8.34 -1.96, 18.73 0" stroke="#1e1e1e" stroke-width="1" fill="none"></path></g><g transform="translate(427.8009269247426 818.9673402321052) rotate(0 21.5 12.5)"><text x="21.5" y="0" font-family="Virgil, Segoe UI Emoji" font-size="20px" fill="#1e1e1e" text-anchor="middle" style="white-space: pre;" direction="ltr" dominant-baseline="text-before-edge">ÖNB</text></g><g stroke-linecap="round"><g transform="translate(178.86422913581146 144.58352096538354) rotate(0 103.30870814034796 -1.4872225073525946)"><path d="M0.87 -0.17 C35.24 -0.28, 172.7 -0.76, 206.75 -0.88 M-0.13 -1.31 C34.13 -1.77, 172.32 -2.5, 206.36 -2.8" stroke="#1e1e1e" stroke-width="1" fill="none"></path></g><g transform="translate(178.86422913581146 144.58352096538354) rotate(0 103.30870814034796 -1.4872225073525946)"><path d="M177.95 9.43 C188.55 3, 198.11 1.66, 208.26 -0.97 M179.05 8.35 C186.43 5.35, 193.29 1.3, 206.59 -2.26" stroke="#1e1e1e" stroke-width="1" fill="none"></path></g><g transform="translate(178.86422913581146 144.58352096538354) rotate(0 103.30870814034796 -1.4872225073525946)"><path d="M177.81 -11.09 C188.41 -10.49, 198.03 -4.79, 208.26 -0.97 M178.91 -12.18 C186.35 -9.69, 193.25 -8.25, 206.59 -2.26" stroke="#1e1e1e" stroke-width="1" fill="none"></path></g></g><mask></mask><g stroke-linecap="round"><g transform="translate(557.2216748686822 143.31386510721958) rotate(0 107.357356668889 -1.305757043488267)"><path d="M0.34 -0.65 C36 -0.99, 177.85 -2.26, 213.5 -2.7 M-0.94 1.63 C35.12 1.03, 179.94 -3.07, 215.66 -4.24" stroke="#1e1e1e" stroke-width="1" fill="none"></path></g><g transform="translate(557.2216748686822 143.31386510721958) rotate(0 107.357356668889 -1.305757043488267)"><path d="M186.71 5.08 C196.93 3.44, 203.17 1.44, 214.95 -3.96 M187.46 7.71 C195.13 4.21, 200.7 1.95, 215.29 -4.06" stroke="#1e1e1e" stroke-width="1" fill="none"></path></g><g transform="translate(557.2216748686822 143.31386510721958) rotate(0 107.357356668889 -1.305757043488267)"><path d="M186.1 -15.43 C196.37 -11.75, 202.78 -8.41, 214.95 -3.96 M186.84 -12.81 C194.55 -11.36, 200.27 -8.67, 215.29 -4.06" stroke="#1e1e1e" stroke-width="1" fill="none"></path></g></g><mask></mask><g stroke-linecap="round"><g transform="translate(953.3543026158488 142.04420924905557) rotate(0 94.29423208066225 72.51992361926885)"><path d="M1.09 -1.02 C32.41 23.15, 157.11 120.39, 188.38 145.04 M0.21 1.05 C31.37 25.34, 156.32 122.07, 187.68 146.06" stroke="#1e1e1e" stroke-width="1" fill="none"></path></g><g transform="translate(953.3543026158488 142.04420924905557) rotate(0 94.29423208066225 72.51992361926885)"><path d="M157.38 137.77 C167.14 141.11, 179.9 142.01, 187.07 146.17 M159.02 137.11 C169.75 141.42, 179.97 143.12, 188.37 146.66" stroke="#1e1e1e" stroke-width="1" fill="none"></path></g><g transform="translate(953.3543026158488 142.04420924905557) rotate(0 94.29423208066225 72.51992361926885)"><path d="M169.9 121.51 C175.43 130.47, 183.95 136.87, 187.07 146.17 M171.55 120.86 C177.53 131.35, 182.99 139.23, 188.37 146.66" stroke="#1e1e1e" stroke-width="1" fill="none"></path></g></g><mask></mask><g stroke-linecap="round"><g transform="translate(1138.5923941292667 368.04295200224686) rotate(0 -91.36940021858766 67.09373361229191)"><path d="M0.17 -1 C-30.15 21.71, -151.48 112.74, -181.78 135.19 M-1.2 1.08 C-31.72 23.53, -152.69 111.05, -182.91 133.29" stroke="#1e1e1e" stroke-width="1" fill="none"></path></g><g transform="translate(1138.5923941292667 368.04295200224686) rotate(0 -91.36940021858766 67.09373361229191)"><path d="M-167.85 107.81 C-170.92 115.79, -178.59 122.83, -181.17 133.47 M-165.97 108.67 C-173.94 117.51, -179.99 128.89, -183.25 133.68" stroke="#1e1e1e" stroke-width="1" fill="none"></path></g><g transform="translate(1138.5923941292667 368.04295200224686) rotate(0 -91.36940021858766 67.09373361229191)"><path d="M-155.76 124.39 C-162.45 127.23, -173.88 129.11, -181.17 133.47 M-153.88 125.26 C-166.48 127.62, -177.3 132.45, -183.25 133.68" stroke="#1e1e1e" stroke-width="1" fill="none"></path></g></g><mask></mask><g stroke-linecap="round"><g transform="translate(542.2291272432949 656.2548318054739) rotate(0 -33.56427999457861 64.85201149057906)"><path d="M0.79 0.8 C-10.41 22.11, -56.61 107.77, -67.92 128.91" stroke="#1e1e1e" stroke-width="1.5" fill="none" stroke-dasharray="8 9"></path></g><g transform="translate(542.2291272432949 656.2548318054739) rotate(0 -33.56427999457861 64.85201149057906)"><path d="M-62.28 97.45 C-63.28 106.07, -66.49 112.17, -69.51 129.99" stroke="#1e1e1e" stroke-width="1.5" fill="none"></path></g><g transform="translate(542.2291272432949 656.2548318054739) rotate(0 -33.56427999457861 64.85201149057906)"><path d="M-44.21 107.17 C-49.64 113.56, -57.22 117.32, -69.51 129.99" stroke="#1e1e1e" stroke-width="1.5" fill="none"></path></g></g><mask></mask><g stroke-linecap="round"><g transform="translate(384.5484781583789 103.9545335041357) rotate(0 -104.18011436012404 -31.199365620468164)"><path d="M0.86 0.76 C-17.39 -9.36, -74.62 -61.06, -109.49 -61.44 C-144.36 -61.83, -191.93 -11.6, -208.38 -1.56 M-0.15 0.11 C-18.48 -10.28, -75.08 -63.07, -109.93 -63.16 C-144.78 -63.24, -192.9 -10.91, -209.22 -0.39" stroke="#1e1e1e" stroke-width="1" fill="none"></path></g><g transform="translate(384.5484781583789 103.9545335041357) rotate(0 -104.18011436012404 -31.199365620468164)"><path d="M-192.75 -24.64 C-197.5 -18.54, -203.88 -10.29, -209.06 -2.02 M-193.42 -26.67 C-199.98 -16.74, -206.8 -6.12, -208.74 -0.99" stroke="#1e1e1e" stroke-width="1" fill="none"></path></g><g transform="translate(384.5484781583789 103.9545335041357) rotate(0 -104.18011436012404 -31.199365620468164)"><path d="M-179.68 -8.81 C-188.31 -7.43, -198.66 -3.99, -209.06 -2.02 M-180.36 -10.85 C-192.17 -7.24, -204.13 -2.85, -208.74 -0.99" stroke="#1e1e1e" stroke-width="1" fill="none"></path></g></g><mask></mask><g stroke-linecap="round"><g transform="translate(778.142950065363 457.4325524233958) rotate(0 -299.41294774761616 -137.39174940466782)"><path d="M-1.11 0.95 C-21.13 -16.13, -19.46 -56.33, -119.08 -102.45 C-218.7 -148.56, -518.82 -246.65, -598.81 -275.74 M0.5 0.41 C-19.8 -17, -20.32 -58.31, -120.29 -104.09 C-220.26 -149.87, -519.6 -245.56, -599.33 -274.27" stroke="#1e1e1e" stroke-width="1" fill="none"></path></g><g transform="translate(778.142950065363 457.4325524233958) rotate(0 -299.41294774761616 -137.39174940466782)"><path d="M-567.75 -275.73 C-579.39 -274.15, -591.98 -274.28, -600.87 -275.28 M-569.04 -275.48 C-579.97 -275.38, -592.44 -274.75, -598.57 -274.03" stroke="#1e1e1e" stroke-width="1" fill="none"></path></g><g transform="translate(778.142950065363 457.4325524233958) rotate(0 -299.41294774761616 -137.39174940466782)"><path d="M-574.36 -256.3 C-583.46 -262.16, -593.5 -269.78, -600.87 -275.28 M-575.65 -256.06 C-584.16 -263.31, -594.13 -270.07, -598.57 -274.03" stroke="#1e1e1e" stroke-width="1" fill="none"></path></g></g><mask></mask><g transform="translate(250.81876263994718 163.62835883784348) rotate(0 22 12.5)"><text x="22" y="0" font-family="Virgil, Segoe UI Emoji" font-size="20px" fill="#1e1e1e" text-anchor="middle" style="white-space: pre;" direction="ltr" dominant-baseline="text-before-edge">M+D</text></g><g transform="translate(651.2941435218017 161.0890471215155) rotate(0 7.5 12.5)"><text x="7.5" y="0" font-family="Virgil, Segoe UI Emoji" font-size="20px" fill="#1e1e1e" text-anchor="middle" style="white-space: pre;" direction="ltr" dominant-baseline="text-before-edge">M</text></g><g transform="translate(1020.7639982475246 215.6842490225673) rotate(0 7.5 12.5)"><text x="7.5" y="0" font-family="Virgil, Segoe UI Emoji" font-size="20px" fill="#1e1e1e" text-anchor="middle" style="white-space: pre;" direction="ltr" dominant-baseline="text-before-edge">M</text></g><g transform="translate(1046.1571154108046 384.74503674001875) rotate(0 7.5 12.5)"><text x="7.5" y="0" font-family="Virgil, Segoe UI Emoji" font-size="20px" fill="#1e1e1e" text-anchor="middle" style="white-space: pre;" direction="ltr" dominant-baseline="text-before-edge">M</text></g><g transform="translate(656.372766954458 455.84576479720243) rotate(0 7.5 12.5)"><text x="7.5" y="0" font-family="Virgil, Segoe UI Emoji" font-size="20px" fill="#1e1e1e" text-anchor="middle" style="white-space: pre;" direction="ltr" dominant-baseline="text-before-edge">M</text></g><g transform="translate(247.31876263994695 10) rotate(0 25.5 12.5)"><text x="25.5" y="0" font-family="Virgil, Segoe UI Emoji" font-size="20px" fill="#1e1e1e" text-anchor="middle" style="white-space: pre;" direction="ltr" dominant-baseline="text-before-edge">ARCH</text></g><g transform="translate(520.9858045707142 340.1105231226389) rotate(0 21 12.5)"><text x="21" y="0" font-family="Virgil, Segoe UI Emoji" font-size="20px" fill="#1e1e1e" text-anchor="middle" style="white-space: pre;" direction="ltr" dominant-baseline="text-before-edge">PUB</text></g><g transform="translate(471.73888196048233 694.5410661320336) rotate(0 22 12.5)"><text x="22" y="0" font-family="Virgil, Segoe UI Emoji" font-size="20px" fill="#1e1e1e" text-anchor="middle" style="white-space: pre;" direction="ltr" dominant-baseline="text-before-edge">M+D</text></g><g stroke-linecap="round" transform="translate(169.97663812866335 573.0923730957322) rotate(0 81.25797492249569 37.454847815837866)"><path d="M4.98 4.33 C4.98 4.33, 4.98 4.33, 4.98 4.33 M4.98 4.33 C4.98 4.33, 4.98 4.33, 4.98 4.33 M0.79 15.26 C4.94 9.59, 9.68 6.34, 11.94 2.43 M0.79 15.26 C4.4 10.34, 8.53 4.85, 11.94 2.43 M1.18 20.9 C6.23 13.84, 12.47 7.49, 18.9 0.53 M1.18 20.9 C4.7 16.43, 8.83 11.45, 18.9 0.53 M0.92 27.3 C8.31 19.71, 11.7 15.75, 24.54 0.13 M0.92 27.3 C7.02 20, 15.14 10.36, 24.54 0.13 M1.31 32.94 C7.46 24.38, 14.28 16.25, 29.53 0.49 M1.31 32.94 C9.25 22.85, 17.92 14.12, 29.53 0.49 M1.05 39.34 C11.51 28.8, 20.47 15.71, 35.17 0.1 M1.05 39.34 C12.53 26.35, 22.02 15.29, 35.17 0.1 M0.79 45.74 C9.11 33.26, 19.87 23.04, 40.16 0.46 M0.79 45.74 C9.62 36.56, 18.86 25.8, 40.16 0.46 M1.19 51.38 C17.57 31.47, 34.77 9.31, 45.8 0.06 M1.19 51.38 C10.06 40.02, 18.6 30.9, 45.8 0.06 M0.93 57.78 C20.3 37.97, 39.49 15.24, 50.79 0.42 M0.93 57.78 C19.35 36.94, 36.95 14.3, 50.79 0.42 M1.98 62.67 C21.18 40.56, 42.42 17.07, 56.43 0.03 M1.98 62.67 C19.36 42.17, 34.94 23.95, 56.43 0.03 M3.03 67.56 C20.48 47.81, 35.07 29.96, 61.42 0.39 M3.03 67.56 C21.63 46.48, 39.8 26.67, 61.42 0.39 M5.39 70.94 C23.62 52.55, 37.25 35.02, 67.06 -0.01 M5.39 70.94 C20.56 52.67, 37.05 33.19, 67.06 -0.01 M8.41 73.56 C29.94 49.9, 51.3 22.95, 72.05 0.35 M8.41 73.56 C29.18 48.27, 52.59 23.49, 72.05 0.35 M12.74 74.67 C33.64 49.55, 58.36 24.13, 77.69 -0.04 M12.74 74.67 C30.93 55.26, 48.83 32.31, 77.69 -0.04 M17.73 75.03 C36.55 51.43, 55.2 32.16, 82.68 0.32 M17.73 75.03 C31.15 59.33, 46.4 42.47, 82.68 0.32 M21.4 76.9 C33.26 60.63, 49.62 46.9, 87.66 0.68 M21.4 76.9 C35.36 59.55, 51.19 42.02, 87.66 0.68 M26.39 77.26 C42.91 58.45, 54.37 41.66, 93.31 0.28 M26.39 77.26 C51.92 48.44, 77.75 17.65, 93.31 0.28 M32.03 76.87 C55.99 51.33, 79.36 21.12, 98.29 0.64 M32.03 76.87 C58 47.21, 82.81 16.97, 98.29 0.64 M37.02 77.23 C61.15 48.93, 84.8 22.85, 103.94 0.25 M37.02 77.23 C57.63 53.81, 79.66 29.71, 103.94 0.25 M42.66 76.84 C68.18 46.12, 95.87 16.8, 108.92 0.61 M42.66 76.84 C61.53 55.37, 79.7 33.68, 108.92 0.61 M47.65 77.2 C65.71 56.3, 82.01 36.22, 114.57 0.21 M47.65 77.2 C64.38 58.08, 80.78 40.67, 114.57 0.21 M53.29 76.8 C78.44 49.19, 105.97 19.03, 119.55 0.57 M53.29 76.8 C68.4 60.07, 81.21 44.27, 119.55 0.57 M58.28 77.16 C79.91 52.63, 98.28 29.09, 125.2 0.18 M58.28 77.16 C85.01 46.18, 112.37 14.78, 125.2 0.18 M63.92 76.77 C84.82 50.95, 109.53 24.01, 130.18 0.54 M63.92 76.77 C88.66 46.35, 114.65 16.77, 130.18 0.54 M68.91 77.13 C88.55 50.21, 112.8 28.61, 135.83 0.15 M68.91 77.13 C92.04 51.3, 114.75 23.88, 135.83 0.15 M74.55 76.73 C96.2 49.79, 119.42 25.24, 140.81 0.51 M74.55 76.73 C98.26 49.32, 122.38 20.33, 140.81 0.51 M79.54 77.09 C102.42 49.59, 126.55 24.47, 145.14 1.62 M79.54 77.09 C97.1 56.9, 115.49 35.78, 145.14 1.62 M84.53 77.45 C106.7 48.97, 132.91 22.59, 149.48 2.74 M84.53 77.45 C109.11 48.84, 133.56 19.34, 149.48 2.74 M90.17 77.06 C113.39 47.76, 138.71 22.55, 154.46 3.1 M90.17 77.06 C110.73 54.43, 129.25 32.68, 154.46 3.1 M95.16 77.42 C113.35 56.92, 131.99 32.58, 158.14 4.97 M95.16 77.42 C112.32 57.32, 130.13 37.23, 158.14 4.97 M100.8 77.02 C119.78 56.65, 136.7 38.06, 160.5 8.34 M100.8 77.02 C124.63 50.12, 147.04 24.44, 160.5 8.34 M105.79 77.38 C124.43 54.9, 145.7 29.68, 162.21 12.48 M105.79 77.38 C122.92 57.12, 141.4 35.55, 162.21 12.48 M111.43 76.99 C131.37 54.6, 153.66 27.48, 164.57 15.86 M111.43 76.99 C132.39 53.5, 151.79 30.49, 164.57 15.86 M116.42 77.35 C132.24 55.55, 149.79 36.09, 164.31 22.25 M116.42 77.35 C125.26 65.43, 136.77 55.3, 164.31 22.25 M122.06 76.95 C133.24 61.7, 145.75 46.63, 164.7 27.9 M122.06 76.95 C138.82 56.67, 156.97 37.59, 164.7 27.9 M127.05 77.31 C139.37 60.77, 154.68 45.49, 164.44 34.3 M127.05 77.31 C136.2 66.51, 146.83 54.41, 164.44 34.3 M132.69 76.92 C144.94 63.71, 152.89 53.94, 164.18 40.69 M132.69 76.92 C139.77 66.92, 147.61 58.74, 164.18 40.69 M137.68 77.28 C145.8 66.19, 157.19 55.96, 164.57 46.34 M137.68 77.28 C143.26 69.79, 150.84 62.58, 164.57 46.34 M144.63 75.38 C151.54 71.02, 155.3 61.92, 164.31 52.73 M144.63 75.38 C153.02 66.7, 160.41 57.37, 164.31 52.73 M150.93 74.23 C153.43 72.7, 155.53 68.52, 164.71 58.38 M150.93 74.23 C155.96 68.26, 160.46 63.95, 164.71 58.38" stroke="#ffffff" stroke-width="0.5" fill="none"></path><path d="M18.73 0 M18.73 0 C63.42 1.87, 106.25 0.42, 143.79 0 M18.73 0 C45.37 1.24, 70.6 0.99, 143.79 0 M143.79 0 C156.68 0.07, 163.37 5.69, 162.52 18.73 M143.79 0 C158.19 -1.65, 161.9 5.65, 162.52 18.73 M162.52 18.73 C163.47 30.62, 163.5 45.42, 162.52 56.18 M162.52 18.73 C162.76 31.84, 162.22 46.22, 162.52 56.18 M162.52 56.18 C163.74 69.49, 157.21 76.81, 143.79 74.91 M162.52 56.18 C163.73 70.8, 156.54 75.66, 143.79 74.91 M143.79 74.91 C96.08 75.8, 49.36 75.84, 18.73 74.91 M143.79 74.91 C115.11 74.5, 88.11 74.86, 18.73 74.91 M18.73 74.91 C5.75 75.59, -1.44 68.99, 0 56.18 M18.73 74.91 C4.31 76.87, -1.12 68.77, 0 56.18 M0 56.18 C0.32 46.85, 0.63 39.97, 0 18.73 M0 56.18 C-0.77 46.58, 0.84 38.51, 0 18.73 M0 18.73 C-1.69 4.45, 7.84 -0.89, 18.73 0 M0 18.73 C-0.76 4.09, 5.04 1.45, 18.73 0" stroke="#1e1e1e" stroke-width="1" fill="none"></path></g><g transform="translate(223.73461305115904 598.0472209115701) rotate(0 27.5 12.5)"><text x="27.5" y="0" font-family="Virgil, Segoe UI Emoji" font-size="20px" fill="#1e1e1e" text-anchor="middle" style="white-space: pre;" direction="ltr" dominant-baseline="text-before-edge">REPO</text></g><g stroke-linecap="round" transform="translate(315.73888196048233 353.92991438599034) rotate(0 89 68)"><path d="M12.32 59.74 C12.32 59.74, 12.32 59.74, 12.32 59.74 M12.32 59.74 C12.32 59.74, 12.32 59.74, 12.32 59.74 M6.81 72.17 C12.81 67.07, 17.44 56.29, 27.81 48.02 M6.81 72.17 C14.79 63.16, 22.32 55.2, 27.81 48.02 M9.83 74.8 C21.74 62.5, 30.57 49.44, 43.95 35.55 M9.83 74.8 C22.39 59.86, 34.99 45.35, 43.95 35.55 M12.85 77.42 C25.09 65.39, 33.81 53.07, 59.43 23.84 M12.85 77.42 C28.88 59.19, 44.58 41.01, 59.43 23.84 M15.87 80.05 C33.69 61.47, 47.81 40.49, 74.92 12.12 M15.87 80.05 C38.48 55.15, 59.33 30.34, 74.92 12.12 M18.89 82.67 C34.74 65.49, 49.8 44.51, 82.53 9.46 M18.89 82.67 C42.37 54.19, 67.4 26.85, 82.53 9.46 M21.91 85.29 C34.58 68.85, 48.47 54.06, 91.45 5.3 M21.91 85.29 C36.93 68.32, 51.46 51.34, 91.45 5.3 M24.93 87.92 C46.91 61.68, 71.92 35.25, 95.78 6.41 M24.93 87.92 C45.08 61.78, 67.68 36.83, 95.78 6.41 M27.95 90.54 C47.5 69.76, 63.27 49.05, 99.46 8.28 M27.95 90.54 C53.69 62.2, 76.45 35.3, 99.46 8.28 M30.96 93.17 C50.21 73.61, 66.62 52.93, 102.47 10.9 M30.96 93.17 C56.3 63.16, 82.62 33.86, 102.47 10.9 M34.64 95.04 C48.77 77.29, 62.98 57.81, 106.15 12.77 M34.64 95.04 C49.53 78.47, 62.85 61.67, 106.15 12.77 M37.66 97.66 C64.37 67.12, 90.73 34.12, 109.17 15.4 M37.66 97.66 C54.6 77.58, 71.73 57.18, 109.17 15.4 M40.68 100.29 C69.94 70.66, 94.55 36.74, 112.84 17.27 M40.68 100.29 C69.24 69.04, 95.55 38, 112.84 17.27 M44.35 102.16 C65.53 74.66, 89.65 50.06, 115.86 19.89 M44.35 102.16 C60.14 83.57, 75.71 63.87, 115.86 19.89 M47.37 104.78 C61.92 87.28, 76.6 68.96, 118.88 22.52 M47.37 104.78 C68.03 82.67, 87.1 58.35, 118.88 22.52 M51.05 106.65 C78.86 76.12, 105.85 47.4, 121.9 25.14 M51.05 106.65 C71.91 83.29, 93.06 59.17, 121.9 25.14 M54.06 109.27 C76.66 84.73, 99.59 58.92, 124.92 27.76 M54.06 109.27 C70.41 89.48, 89.38 67.88, 124.92 27.76 M57.08 111.9 C84.55 79.82, 113.38 50.46, 128.59 29.63 M57.08 111.9 C83.34 83.09, 108.3 55.09, 128.59 29.63 M60.76 113.77 C79.9 91.95, 98.87 70.24, 131.61 32.26 M60.76 113.77 C77.51 94.43, 94.24 77.4, 131.61 32.26 M63.78 116.39 C83.36 93.35, 98.85 73.49, 134.63 34.88 M63.78 116.39 C81.07 97.76, 97.51 79.23, 134.63 34.88 M66.8 119.02 C91.7 91.84, 116.45 60.6, 137.65 37.51 M66.8 119.02 C89.21 92.07, 111.49 66.76, 137.65 37.51 M70.47 120.88 C86.7 102.75, 101.63 84.19, 140.67 40.13 M70.47 120.88 C92.85 94.81, 114.62 68.84, 140.67 40.13 M73.49 123.51 C90.15 104.83, 104.81 87.3, 143.69 42.76 M73.49 123.51 C90.37 106.76, 103.96 87.51, 143.69 42.76 M76.51 126.13 C101.92 94.35, 131.97 64.22, 147.36 44.62 M76.51 126.13 C95.92 104.34, 114.16 82.39, 147.36 44.62 M80.18 128 C99.55 103.16, 119.5 83.01, 150.38 47.25 M80.18 128 C105.82 97.01, 132.8 67.28, 150.38 47.25 M83.2 130.63 C108.54 101.8, 131.41 77.48, 153.4 49.87 M83.2 130.63 C106.89 104.3, 128.18 78.07, 153.4 49.87 M87.53 131.74 C106.54 107.87, 130.06 84.09, 156.42 52.5 M87.53 131.74 C106.96 110.47, 124.86 88.11, 156.42 52.5 M91.86 132.86 C105.02 115.61, 122.97 96.2, 159.44 55.12 M91.86 132.86 C105.5 117.35, 120.26 99.81, 159.44 55.12 M100.13 129.44 C123.25 107.16, 142.66 83.91, 162.46 57.75 M100.13 129.44 C117.9 108.7, 134.64 89.3, 162.46 57.75 M115.62 117.73 C126.92 104.21, 137.89 91.39, 166.13 59.62 M115.62 117.73 C124.98 106.62, 135.86 93.92, 166.13 59.62 M131.1 106.01 C142.27 92.89, 148.36 85.25, 168.49 62.99 M131.1 106.01 C140.72 96.42, 148.12 86.01, 168.49 62.99 M145.93 95.05 C154.18 84.59, 159.3 77.44, 171.51 65.62 M145.93 95.05 C153.6 86.57, 161.18 77.75, 171.51 65.62 M163.38 81.07 C166.04 77.72, 168.56 75.21, 173.22 69.75 M163.38 81.07 C166.72 78.48, 168.53 75.81, 173.22 69.75" stroke="#ffffff" stroke-width="0.5" fill="none"></path><path d="M112.5 17.25 M112.5 17.25 C127.29 31.85, 145.89 45.12, 155.5 51.75 M112.5 17.25 C121.24 24.08, 131.45 32.98, 155.5 51.75 M155.5 51.75 C177.68 70.26, 176.54 70.42, 155.5 86.25 M155.5 51.75 C180.07 67.31, 179.78 70.13, 155.5 86.25 M155.5 86.25 C143.32 97.92, 125.61 106.41, 112.5 118.75 M155.5 86.25 C141.3 97.79, 125.63 107.34, 112.5 118.75 M112.5 118.75 C89.02 135.57, 89.12 134.24, 67.5 118.75 M112.5 118.75 C89.31 138.15, 88.03 137.62, 67.5 118.75 M67.5 118.75 C50.49 107.85, 34.96 91.87, 22.5 86.25 M67.5 118.75 C51.09 107.41, 34.72 95.01, 22.5 86.25 M22.5 86.25 C-1.2 67.39, 0.54 70.65, 22.5 51.75 M22.5 86.25 C-0.08 68.02, -0.77 68.79, 22.5 51.75 M22.5 51.75 C32.55 42.75, 46.27 35.23, 67.5 17.25 M22.5 51.75 C38.67 38.86, 55.71 26.14, 67.5 17.25 M67.5 17.25 C88.77 1.45, 91.19 0.37, 112.5 17.25 M67.5 17.25 C89.57 -0.12, 89.91 0.43, 112.5 17.25" stroke="#1e1e1e" stroke-width="1" fill="none"></path></g><g transform="translate(365.23888196048233 409.42991438599034) rotate(0 39.5 12.5)"><text x="39.5" y="0" font-family="Virgil, Segoe UI Emoji" font-size="20px" fill="#1e1e1e" text-anchor="middle" style="white-space: pre;" direction="ltr" dominant-baseline="text-before-edge">Embargo</text></g><g stroke-linecap="round"><g transform="translate(768.2597293382012 492.70003838658835) rotate(0 -140.14919282217693 -30.973819061146486)"><path d="M0.64 1.16 C-46.27 -9.28, -233.42 -52.61, -280.57 -63.11 M-0.48 0.73 C-47.53 -9.5, -233.79 -50.98, -280.94 -61.72" stroke="#1e1e1e" stroke-width="1" fill="none"></path></g><g transform="translate(768.2597293382012 492.70003838658835) rotate(0 -140.14919282217693 -30.973819061146486)"><path d="M-249.25 -63.71 C-262.81 -64.96, -271.86 -63.6, -281.6 -60.49 M-251.11 -65.42 C-260.15 -64.49, -270.86 -62.23, -281.51 -62.43" stroke="#1e1e1e" stroke-width="1" fill="none"></path></g><g transform="translate(768.2597293382012 492.70003838658835) rotate(0 -140.14919282217693 -30.973819061146486)"><path d="M-253.75 -43.69 C-265.55 -52.46, -272.91 -58.6, -281.6 -60.49 M-255.61 -45.4 C-263.13 -50.8, -272.42 -54.84, -281.51 -62.43" stroke="#1e1e1e" stroke-width="1" fill="none"></path></g></g><mask></mask><g stroke-linecap="round"><g transform="translate(343.2446844169592 464.2494676348335) rotate(0 -41.02250751258646 51.266173490945704)"><path d="M-0.68 0.1 C-14.48 17.18, -69.45 86.26, -83.21 103.42 M1.16 -0.89 C-12.22 15.72, -67.25 83.91, -80.91 101.45" stroke="#1e1e1e" stroke-width="1" fill="none"></path></g><g transform="translate(343.2446844169592 464.2494676348335) rotate(0 -41.02250751258646 51.266173490945704)"><path d="M-71.23 71.68 C-73.23 79.18, -76.39 86.2, -82.12 103.36 M-70.63 73.16 C-73.05 82.18, -77.65 90.18, -80.65 100.46" stroke="#1e1e1e" stroke-width="1" fill="none"></path></g><g transform="translate(343.2446844169592 464.2494676348335) rotate(0 -41.02250751258646 51.266173490945704)"><path d="M-55.17 84.45 C-61.57 88.44, -69.02 92.05, -82.12 103.36 M-54.57 85.92 C-61.69 91.29, -70.94 95.6, -80.65 100.46" stroke="#1e1e1e" stroke-width="1" fill="none"></path></g></g><mask></mask><g stroke-linecap="round"><g transform="translate(459.32297930754453 469.49046257761444) rotate(0 46.97572310387801 45.42188559367048)"><path d="M-0.69 -0.11 C15 15.27, 78.85 76.65, 94.64 92.06 M1.15 -1.21 C16.63 13.82, 77.73 74.94, 93.63 90.21" stroke="#1e1e1e" stroke-width="1" fill="none"></path></g><g transform="translate(459.32297930754453 469.49046257761444) rotate(0 46.97572310387801 45.42188559367048)"><path d="M66.15 77.59 C76.47 80.98, 86.19 86.11, 94.32 90.2 M66.65 78.53 C77.35 82.73, 87.3 88.14, 93.1 90.43" stroke="#1e1e1e" stroke-width="1" fill="none"></path></g><g transform="translate(459.32297930754453 469.49046257761444) rotate(0 46.97572310387801 45.42188559367048)"><path d="M80.53 62.95 C85.93 71.25, 90.76 81.36, 94.32 90.2 M81.03 63.89 C86.31 73.62, 90.7 84.69, 93.1 90.43" stroke="#1e1e1e" stroke-width="1" fill="none"></path></g></g><mask></mask><g transform="translate(276.6277302144392 467.0761089390384) rotate(0 16 12.5)"><text x="0" y="0" font-family="Virgil, Segoe UI Emoji" font-size="20px" fill="#1e1e1e" text-anchor="start" style="white-space: pre;" direction="ltr" dominant-baseline="text-before-edge">Yes</text></g><g transform="translate(520.4016549819262 478.50301166251444) rotate(0 12 12.5)"><text x="0" y="0" font-family="Virgil, Segoe UI Emoji" font-size="20px" fill="#1e1e1e" text-anchor="start" style="white-space: pre;" direction="ltr" dominant-baseline="text-before-edge">No</text></g><g transform="translate(675.2204176218734 580.468597478914) rotate(0 42 25)"><text x="0" y="0" font-family="Virgil, Segoe UI Emoji" font-size="20px" fill="#1e1e1e" text-anchor="start" style="white-space: pre;" direction="ltr" dominant-baseline="text-before-edge">D: Public</text><text x="0" y="25" font-family="Virgil, Segoe UI Emoji" font-size="20px" fill="#1e1e1e" text-anchor="start" style="white-space: pre;" direction="ltr" dominant-baseline="text-before-edge">M: Public</text></g><g transform="translate(407.69404408802257 191.95390488073127) rotate(0 67 25)"><text x="0" y="0" font-family="Virgil, Segoe UI Emoji" font-size="20px" fill="#1e1e1e" text-anchor="start" style="white-space: pre;" direction="ltr" dominant-baseline="text-before-edge">D: Restricted</text><text x="0" y="25" font-family="Virgil, Segoe UI Emoji" font-size="20px" fill="#1e1e1e" text-anchor="start" style="white-space: pre;" direction="ltr" dominant-baseline="text-before-edge">M: Restricted</text></g><g transform="translate(17.516578468395664 588.0865326278979) rotate(0 67 25)"><text x="0" y="0" font-family="Virgil, Segoe UI Emoji" font-size="20px" fill="#1e1e1e" text-anchor="start" style="white-space: pre;" direction="ltr" dominant-baseline="text-before-edge">D: Restricted</text><text x="0" y="25" font-family="Virgil, Segoe UI Emoji" font-size="20px" fill="#1e1e1e" text-anchor="start" style="white-space: pre;" direction="ltr" dominant-baseline="text-before-edge">M: Public</text></g><g stroke-linecap="round"><g transform="translate(338.84086726447504 615.6258443442259) rotate(0 70.27942308294558 -1.6153870044251448)"><path d="M0.92 -0.32 C24.21 -0.67, 117.35 -2.56, 140.61 -2.91 M-0.05 -1.54 C22.98 -1.64, 116.24 -1.64, 139.49 -1.56" stroke="#1e1e1e" stroke-width="1" fill="none"></path></g><g transform="translate(338.84086726447504 615.6258443442259) rotate(0 70.27942308294558 -1.6153870044251448)"><path d="M110.75 8.12 C121.24 3.88, 132.53 1.11, 139.57 -3.34 M111.58 8.8 C118.52 6.7, 127.05 3.85, 139.53 -2.08" stroke="#1e1e1e" stroke-width="1" fill="none"></path></g><g transform="translate(338.84086726447504 615.6258443442259) rotate(0 70.27942308294558 -1.6153870044251448)"><path d="M110.78 -12.4 C121.11 -9, 132.4 -4.14, 139.57 -3.34 M111.61 -11.72 C118.54 -7.9, 127.06 -4.83, 139.53 -2.08" stroke="#1e1e1e" stroke-width="1" fill="none"></path></g></g><mask></mask><g transform="translate(382.00916644205086 552.1430514360261) rotate(0 38.5 25)"><text x="0" y="0" font-family="Virgil, Segoe UI Emoji" font-size="20px" fill="#1e1e1e" text-anchor="start" style="white-space: pre;" direction="ltr" dominant-baseline="text-before-edge">embargo</text><text x="0" y="25" font-family="Virgil, Segoe UI Emoji" font-size="20px" fill="#1e1e1e" text-anchor="start" style="white-space: pre;" direction="ltr" dominant-baseline="text-before-edge">ends</text></g><g transform="translate(811.1528465014812 197.90906700827136) rotate(0 64.5 12.5)"><text x="0" y="0" font-family="Virgil, Segoe UI Emoji" font-size="20px" fill="#1e1e1e" text-anchor="start" style="white-space: pre;" direction="ltr" dominant-baseline="text-before-edge">M-Datensatz</text></g><g transform="translate(813.6921582178093 559.7609865850102) rotate(0 70 12.5)"><text x="0" y="0" font-family="Virgil, Segoe UI Emoji" font-size="20px" fill="#1e1e1e" text-anchor="start" style="white-space: pre;" direction="ltr" dominant-baseline="text-before-edge">AC-Datensatz</text></g><g transform="translate(1081.5895442904123 176.32491741948346) rotate(0 38 12.5)"><text x="0" y="0" font-family="Virgil, Segoe UI Emoji" font-size="20px" fill="#1e1e1e" text-anchor="start" style="white-space: pre;" direction="ltr" dominant-baseline="text-before-edge">By-Hand</text></g></svg>